<svg xmlns="http://www.w3.org/2000/svg" viewBox="0 0 215.07 178.91"><defs><style>.cls-1{fill:#fff;}</style></defs><title>hamburguerRecurso 1</title><g id="Capa_2" data-name="Capa 2"><g id="Layer_1" data-name="Layer 1"><path class="cls-1" d="M45.68,15.23H207.46a7.62,7.62,0,0,0,0-15.23H45.68a7.62,7.62,0,0,0,0,15.23Z"/><path class="cls-1" d="M22.2,0H7.61a7.62,7.62,0,0,0,0,15.23H22.2A7.62,7.62,0,1,0,22.2,0Z"/><path class="cls-1" d="M207.46,54.56H45.68a7.62,7.62,0,0,0,0,15.23H207.46a7.62,7.62,0,0,0,0-15.23Z"/><path class="cls-1" d="M22.2,54.56H7.61a7.62,7.62,0,0,0,0,15.23H22.2a7.62,7.62,0,1,0,0-15.23Z"/><path class="cls-1" d="M207.46,109.12H45.68a7.62,7.62,0,0,0,0,15.23H207.46a7.62,7.62,0,0,0,0-15.23Z"/><path class="cls-1" d="M22.2,109.12H7.61a7.62,7.62,0,0,0,0,15.23H22.2a7.62,7.62,0,1,0,0-15.23Z"/><path class="cls-1" d="M207.46,163.68H45.68a7.62,7.62,0,0,0,0,15.23H207.46a7.62,7.62,0,0,0,0-15.23Z"/><path class="cls-1" d="M22.2,163.68H7.61a7.62,7.62,0,0,0,0,15.23H22.2a7.62,7.62,0,1,0,0-15.23Z"/></g></g></svg>