<svg id="Capa_1" data-name="Capa 1" xmlns="http://www.w3.org/2000/svg" xmlns:xlink="http://www.w3.org/1999/xlink" viewBox="0 0 411.61 430.79"><defs><style>.cls-1{fill:url(#Degradado_sin_nombre_37);}.cls-2{fill:url(#Degradado_sin_nombre_73);}.cls-10,.cls-11,.cls-3,.cls-5,.cls-6,.cls-7,.cls-8,.cls-9{fill-rule:evenodd;}.cls-3{fill:url(#Degradado_sin_nombre_37-2);}.cls-4{clip-path:url(#clip-path);}.cls-5{fill:url(#Degradado_sin_nombre_47);}.cls-6{fill:url(#Degradado_sin_nombre_37-5);}.cls-7{fill:url(#Degradado_sin_nombre_37-6);}.cls-12,.cls-8{fill:#010101;}.cls-9{fill:url(#Degradado_sin_nombre_58);}.cls-10{fill:url(#Degradado_sin_nombre_37-7);}.cls-11{fill:#fff;}.cls-13{fill:#73bd80;}</style><linearGradient id="Degradado_sin_nombre_37" x1="218.87" y1="394.85" x2="363.72" y2="250" gradientUnits="userSpaceOnUse"><stop offset="0" stop-color="#51b89e"/><stop offset="0.13" stop-color="#3dafa9"/><stop offset="0.34" stop-color="#22a3b7"/><stop offset="0.55" stop-color="#0f9bc1"/><stop offset="0.77" stop-color="#0496c7"/><stop offset="1" stop-color="#0094c9"/></linearGradient><linearGradient id="Degradado_sin_nombre_73" y1="205.8" x2="411.61" y2="205.8" gradientUnits="userSpaceOnUse"><stop offset="0" stop-color="#8b80bb"/><stop offset="1" stop-color="#524e9c"/></linearGradient><linearGradient id="Degradado_sin_nombre_37-2" x1="223.85" y1="537.64" x2="369.3" y2="392.19" xlink:href="#Degradado_sin_nombre_37"/><clipPath id="clip-path" transform="translate(-91.38 -81.93)"><rect id="SVGID" class="cls-1" x="241.32" y="227.55" width="99.95" height="189.75"/></clipPath><linearGradient id="Degradado_sin_nombre_47" x1="258.68" y1="363.23" x2="324.93" y2="296.98" gradientUnits="userSpaceOnUse"><stop offset="0" stop-color="#1d1d1b"/><stop offset="1" stop-color="#1d1e1b"/></linearGradient><linearGradient id="Degradado_sin_nombre_37-5" x1="167.12" y1="304.31" x2="198.02" y2="273.42" xlink:href="#Degradado_sin_nombre_37"/><linearGradient id="Degradado_sin_nombre_37-6" x1="363.73" y1="316.6" x2="421.58" y2="258.75" xlink:href="#Degradado_sin_nombre_37"/><linearGradient id="Degradado_sin_nombre_58" x1="262.87" y1="408.78" x2="318.37" y2="353.28" gradientUnits="userSpaceOnUse"><stop offset="0" stop-color="#1d1d1b"/><stop offset="0.03" stop-color="#1d1d1b"/><stop offset="1" stop-color="#1d1d1b"/></linearGradient><linearGradient id="Degradado_sin_nombre_37-7" x1="201.23" y1="340.55" x2="375.99" y2="165.79" xlink:href="#Degradado_sin_nombre_37"/></defs><title>IconProjectM3</title><circle class="cls-2" cx="205.8" cy="205.8" r="205.8"/><path class="cls-3" d="M242.76,414.18l-86.38,47.69c-11.53,6.37,37,51.13,137.22,50.85,91.66-.26,162.67-44.21,140-55.47-43.36-21.51-91.44-42-91.44-42Z" transform="translate(-91.38 -81.93)"/><rect class="cls-1" x="149.94" y="145.62" width="99.95" height="189.75"/><rect id="SVGID-2" data-name="SVGID" class="cls-1" x="149.94" y="145.62" width="99.95" height="189.75"/><g class="cls-4"><path class="cls-5" d="M233.91,325.55s45.27,43.34,97.28,10.32l20.35-12.29S327,373.32,293.68,373.93C257.5,374.59,242.94,347.34,233.91,325.55Z" transform="translate(-91.38 -81.93)"/></g><path class="cls-6" d="M190.44,272.63S177.37,239,159.92,252s10.15,76.28,44.76,74.37Z" transform="translate(-91.38 -81.93)"/><path class="cls-7" d="M382.73,272.63S396.39,239,414.64,252s-7.4,73.8-43.59,71.9Z" transform="translate(-91.38 -81.93)"/><path class="cls-8" d="M192.88,301.4c.17-.09.07.09.16-.08s0-.34,0-.51c-.18-1.64-.41-3.37-.73-5.15a64.32,64.32,0,0,0-3.75-13,34.06,34.06,0,0,0-7-11.07,25.55,25.55,0,0,0-2.85-2.43c-1-.73-2-1.4-3-2.05a22.35,22.35,0,0,0-2.25-1.23,17.17,17.17,0,0,0-2.45-.93c-5.25-1.32-8.6.58-10.52,3.9-2.57,4.45-2.35,11.63-1.14,15.92a26.88,26.88,0,0,0,.84,2.71c.38,1,.81,2,1.56,3.9a.28.28,0,1,0,.52-.19c-.64-1.93-1-2.91-1.33-4a25,25,0,0,1-.64-2.68c-.73-4-.34-10.5,2.3-14.38,1.53-2.24,3.94-3.43,7.61-2.31a15,15,0,0,1,2,.7,20.39,20.39,0,0,1,2,1c1,.57,2,1.16,3,1.8a23.14,23.14,0,0,1,2.67,2.06,31.59,31.59,0,0,1,7,10A67.6,67.6,0,0,1,191,295.93c.43,1.73.81,3.4,1.11,5,0,.17,0,.38.1.5s0,0,.18,0a.22.22,0,0,0,.26.2A.25.25,0,0,0,192.88,301.4Z" transform="translate(-91.38 -81.93)"/><path class="cls-8" d="M178.66,270.86a2,2,0,0,0-.52-.16,3.77,3.77,0,0,0-2,.54,7.3,7.3,0,0,0-2.73,2.6,18.93,18.93,0,0,0-2.64,8.67,43.53,43.53,0,0,0,3.62,18.8,37.65,37.65,0,0,0,4.89,8.33,30.37,30.37,0,0,0,7.13,6.52.75.75,0,0,0,.87-1.22,31.49,31.49,0,0,1-6.22-6.64,43.27,43.27,0,0,1-4.56-7.91,42.3,42.3,0,0,1-3.71-17.81,17.12,17.12,0,0,1,1.89-7.94,6.92,6.92,0,0,1,2.1-2.29,12.31,12.31,0,0,1,1.5-.74,3.24,3.24,0,0,0,.4-.28.24.24,0,1,0-.05-.47Z" transform="translate(-91.38 -81.93)"/><path class="cls-8" d="M375.34,310.5c.42-.17.54-.05.87-.37,1.41-1.38,1.61-3.6,2.35-5.44,1.64-4,3.19-8.1,4.8-12.16s3.24-7.94,5.2-11.75A58.74,58.74,0,0,1,396,269.43a10.93,10.93,0,0,1,2.58-2.31,11.08,11.08,0,0,1,8.19-2,7.68,7.68,0,0,1,5.82,5.78.08.08,0,0,0,.1.07.09.09,0,0,0,.06-.1c-.7-4.68-4.11-6.95-8-7.55a13.53,13.53,0,0,0-8.43,1.37,12.19,12.19,0,0,0-3,2.4,62.35,62.35,0,0,0-10.27,16.19c-1.24,2.77-2.33,5.61-3.3,8.49-1.45,4.28-2.69,8.61-3.94,12.93-.42,1.44-.81,2.87-1.22,4.3a1.23,1.23,0,0,0-.13.44c0,.45.22.45.41.87a.24.24,0,0,0,.45.16Z" transform="translate(-91.38 -81.93)"/><path class="cls-9" d="M241.32,376.18v11.05c35.61,34.7,63.85,36.6,99-2l1-9.09Z" transform="translate(-91.38 -81.93)"/><path class="cls-10" d="M288.12,124.33c95.92,0,104.55,91.15,104.55,91.15s.67,10,.67,15.29c0,77.79-39.17,168.75-106.85,168.75-58.07,0-103.59-91-103.59-168.75,0-5.36.64-15.49.64-15.49S192.77,124.33,288.12,124.33Z" transform="translate(-91.38 -81.93)"/><path class="cls-8" d="M389.58,273c-.54.44.32-.62.11.66a.24.24,0,0,0-.23.25.24.24,0,0,0,.25.22c.33,1.24-.61.27-.08.65l.3.24c.18.15.46.05.69.07a9.23,9.23,0,0,1,6.31,3.61,10.27,10.27,0,0,1,2.18,7.74,26.11,26.11,0,0,1-4.79,12,52.93,52.93,0,0,1-9.25,9.85.82.82,0,0,0-.14,1.15.83.83,0,0,0,1.16.14c4.73-3.47,9-7.27,12.06-11.88a27.63,27.63,0,0,0,4.21-10.83,13,13,0,0,0-2.9-10.3,11.08,11.08,0,0,0-8.75-3.91c-.28,0-.64-.13-.85.06A2.42,2.42,0,0,1,389.58,273Z" transform="translate(-91.38 -81.93)"/><path class="cls-11" d="M306.15,158.21s6.75-3.46,12.9,3.24a10.55,10.55,0,0,1,1.51,12.33s11.48-.32,14.87,8.52c2.24,5.83.68,9.18-1.54,12.35-.33.44,8.68,1.93,11.65,9,3.44,8.22-5,14.3-5,14.34.19,1.11,8.47,4.41,10.65,10.13,2.71,7.2,2.24,14.65-3.44,17.64-.09,0,7.72,6.76,5.81,14.35-2.08,8.39-11.13,9.25-11.13,9.25s-1.84,7-6.57,8.36a15.15,15.15,0,0,1-13.95-3.19,8.25,8.25,0,0,1-7.09,5.52c-6,.45-8.8-5.63-8.8-5.63s-6.81,3.6-12.32-.6c-4.2-3.2-3.73-9.36-3.73-9.36s.94-42.84.91-60.09V201c0-5.91.83-38.82.75-44.72C291.52,147.48,304.14,144.35,306.15,158.21Z" transform="translate(-91.38 -81.93)"/><path class="cls-12" d="M318.84,175.73a1.76,1.76,0,0,1-1.76-1.77,1.73,1.73,0,0,1,.33-1,8.81,8.81,0,0,0,1.64-5.15A9,9,0,0,0,301.49,165a1.77,1.77,0,0,1-2.25,1.08,1.79,1.79,0,0,1-1.11-2.19,12.54,12.54,0,0,1,24.46,3.9,12.28,12.28,0,0,1-2.3,7.21A1.76,1.76,0,0,1,318.84,175.73Z" transform="translate(-91.38 -81.93)"/><path class="cls-12" d="M335.83,197.34a1.76,1.76,0,0,1-1.77-1.76,1.72,1.72,0,0,1,.14-.68,12.68,12.68,0,0,0,.92-4.79,13.21,13.21,0,0,0-26.42-.3v.3a1.77,1.77,0,1,1-3.53,0,16.74,16.74,0,0,1,33.48-.34v.34a16.18,16.18,0,0,1-1.18,6.15A1.76,1.76,0,0,1,335.83,197.34Z" transform="translate(-91.38 -81.93)"/><path class="cls-12" d="M299.26,264.37a1.92,1.92,0,0,1-.48-.07,1.76,1.76,0,0,1-1.22-2.18h0c.93-3.31,4.47-9.38,11.17-8.71a1.77,1.77,0,0,1-.35,3.52c-5.46-.53-7.4,6.08-7.43,6.15A1.77,1.77,0,0,1,299.26,264.37Z" transform="translate(-91.38 -81.93)"/><path class="cls-12" d="M299.26,213.14a1.91,1.91,0,0,1-.48-.06,1.76,1.76,0,0,1-1.22-2.18h0c.93-3.31,4.47-9.38,11.17-8.71a1.77,1.77,0,0,1-.35,3.52c-5.46-.53-7.4,6.08-7.43,6.15A1.76,1.76,0,0,1,299.26,213.14Z" transform="translate(-91.38 -81.93)"/><path class="cls-12" d="M323.59,226.11a16.65,16.65,0,0,1-12.83-6,1.77,1.77,0,1,1,2.66-2.33l.06.06a13.15,13.15,0,0,0,23.26-8.41c0-.34,0-.68,0-1a1.77,1.77,0,0,1,3.53-.33v.07c0,.42,0,.84,0,1.27A16.71,16.71,0,0,1,323.59,226.11Z" transform="translate(-91.38 -81.93)"/><path class="cls-12" d="M333.35,238.72h0c-8.61-.17-12.65-7.73-13.58-11.71a1.77,1.77,0,0,1,3.44-.82h0c.09.36,2.22,8.84,10.21,9a1.77,1.77,0,0,1,0,3.54Z" transform="translate(-91.38 -81.93)"/><path class="cls-12" d="M322,261.53h-.15a1.78,1.78,0,0,1-1.62-1.91,13.68,13.68,0,0,0-2.86-10.44,17,17,0,0,0-10.52-5.11,1.77,1.77,0,0,1,.25-3.53,20.54,20.54,0,0,1,13,6.34,17.16,17.16,0,0,1,3.7,13A1.78,1.78,0,0,1,322,261.53Z" transform="translate(-91.38 -81.93)"/><path class="cls-12" d="M319.52,270.62h-.08a1.76,1.76,0,0,1-1.68-1.84h0c.28-6.23,4.35-17.85,17.61-17.38a1.77,1.77,0,1,1-.13,3.53h0c-13.09-.47-13.92,13.42-13.95,14A1.77,1.77,0,0,1,319.52,270.62Z" transform="translate(-91.38 -81.93)"/><path class="cls-11" d="M268.83,158.21s-6.75-3.46-12.9,3.24a10.56,10.56,0,0,0-1.5,12.33s-11.49-.32-14.88,8.52c-2.24,5.83-.68,9.18,1.55,12.35.32.44-8.68,1.93-11.66,9-3.43,8.22,5,14.3,5,14.34-.18,1.11-8.46,4.41-10.64,10.13-2.72,7.2-2.24,14.65,3.43,17.64.1,0-7.71,6.76-5.81,14.35,2.09,8.39,11.14,9.25,11.14,9.25s1.84,7,6.56,8.36a15.17,15.17,0,0,0,14-3.19,8.23,8.23,0,0,0,7.08,5.52c6,.45,8.81-5.63,8.81-5.63s6.81,3.6,12.31-.6c4.21-3.2,3.73-9.36,3.73-9.36s-.93-42.84-.9-60.09V201c0-5.91-.83-38.82-.76-44.72C283.46,147.48,270.84,144.35,268.83,158.21Z" transform="translate(-91.38 -81.93)"/><path class="cls-12" d="M256.14,175.73a1.77,1.77,0,0,0,1.77-1.77,1.8,1.8,0,0,0-.33-1,8.82,8.82,0,0,1-1.65-5.15A9,9,0,0,1,273.49,165a1.77,1.77,0,0,0,3.36-1.11,12.54,12.54,0,0,0-24.45,3.9,12.27,12.27,0,0,0,2.29,7.21A1.79,1.79,0,0,0,256.14,175.73Z" transform="translate(-91.38 -81.93)"/><path class="cls-12" d="M239.15,197.34a1.76,1.76,0,0,0,1.77-1.76,1.72,1.72,0,0,0-.13-.68,12.49,12.49,0,0,1-.92-4.79,13.21,13.21,0,1,1,26.41-.3v.3a1.77,1.77,0,0,0,3.54,0,16.75,16.75,0,0,0-33.49-.34v.34a16,16,0,0,0,1.19,6.15A1.74,1.74,0,0,0,239.15,197.34Z" transform="translate(-91.38 -81.93)"/><path class="cls-12" d="M275.73,264.37a2,2,0,0,0,.48-.07,1.77,1.77,0,0,0,1.22-2.18h0c-.93-3.31-4.48-9.38-11.18-8.71a1.77,1.77,0,1,0,.36,3.52c5.45-.53,7.4,6.08,7.42,6.15A1.79,1.79,0,0,0,275.73,264.37Z" transform="translate(-91.38 -81.93)"/><path class="cls-12" d="M275.73,213.14a2,2,0,0,0,.48-.06,1.77,1.77,0,0,0,1.22-2.18h0c-.93-3.31-4.48-9.38-11.18-8.71a1.77,1.77,0,1,0,.36,3.52c5.45-.53,7.4,6.08,7.42,6.15A1.78,1.78,0,0,0,275.73,213.14Z" transform="translate(-91.38 -81.93)"/><path class="cls-12" d="M251.4,226.11a16.63,16.63,0,0,0,12.82-6,1.77,1.77,0,1,0-2.66-2.33l-.05.06a13.16,13.16,0,0,1-23.27-8.41c0-.34,0-.68,0-1a1.77,1.77,0,0,0-3.52-.33.2.2,0,0,1,0,.07c0,.42,0,.84,0,1.27A16.71,16.71,0,0,0,251.4,226.11Z" transform="translate(-91.38 -81.93)"/><path class="cls-12" d="M241.63,238.72h0c8.61-.17,12.65-7.73,13.59-11.71a1.77,1.77,0,0,0-3.44-.82h0c-.09.36-2.23,8.84-10.21,9a1.77,1.77,0,1,0,0,3.54Z" transform="translate(-91.38 -81.93)"/><path class="cls-12" d="M253,261.53h.15a1.77,1.77,0,0,0,1.61-1.91,13.76,13.76,0,0,1,2.86-10.44,17,17,0,0,1,10.53-5.11,1.77,1.77,0,0,0-.26-3.53,20.57,20.57,0,0,0-13,6.34,17.15,17.15,0,0,0-3.69,13A1.77,1.77,0,0,0,253,261.53Z" transform="translate(-91.38 -81.93)"/><path class="cls-12" d="M255.46,270.62h.08a1.77,1.77,0,0,0,1.69-1.84h0c-.29-6.23-4.35-17.85-17.62-17.38a1.77,1.77,0,0,0,.13,3.53h0c13.1-.47,13.93,13.42,14,14A1.76,1.76,0,0,0,255.46,270.62Z" transform="translate(-91.38 -81.93)"/><rect class="cls-13" x="278.45" y="176.36" width="18.08" height="60.24" transform="translate(402.59 -162.94) rotate(90)"/><rect class="cls-13" x="187.08" y="94.43" width="18.08" height="60.24"/></svg>