<svg xmlns="http://www.w3.org/2000/svg" viewBox="0 0 101.95 109.13"><defs><style>.cls-1{fill:#ececec;}.cls-2{fill:#b7b7b7;}.cls-3{fill:#774d5e;}.cls-4{fill:#443921;opacity:0.51;}.cls-5{fill:#724708;}.cls-6{fill:#a56a81;}.cls-7{fill:#c8ce6f;}.cls-8{fill:none;stroke:#4f350c;stroke-miterlimit:10;}</style></defs><title>planteritaDelOrtoRecurso 2</title><g id="Capa_2" data-name="Capa 2"><g id="OBJECTS"><ellipse class="cls-1" cx="50.98" cy="99.84" rx="32.17" ry="9.29"/><path class="cls-2" d="M77.78,99.58c0,3.85-11.6,7-25.9,7S26,103.43,26,99.58s11.59-7,25.89-7S77.78,95.74,77.78,99.58Z"/><path class="cls-3" d="M69.65,76.05l-2.13,9.54L64.33,99.93c-.17,1.66-6.08,3-13.19,3s-13-1.32-13.19-3L35,85.75l-2-9.7Z"/><path class="cls-4" d="M69.65,76.05l-2.13,9.54c-2.38,1.5-8.87,2.57-16.4,2.57-7.27,0-13.57-1-16.14-2.41l-2-9.7Z"/><path class="cls-5" d="M72.07,67.93c-.34,2.59-9.7,4.63-20.92,4.63s-20.59-2-20.93-4.63S39.24,63,51.15,63,72.42,65.25,72.07,67.93Z"/><path class="cls-6" d="M34.34,70.63C38,69.46,44.07,68.7,51,68.7s13.17.78,16.8,2c2.54-.76,4.12-1.71,4.26-2.74.35-2.68-9-4.92-20.92-4.92s-21.27,2.24-20.93,4.92C30.36,68.94,31.88,69.87,34.34,70.63Z"/><path class="cls-6" d="M51.15,72.56c-11.23,0-20.9-2.09-21.25-4.69l1.93,12.36c.72,6.55,37.66,6.47,38.63,0L72.37,68C72,70.59,62.37,72.56,51.15,72.56Z"/><path class="cls-3" d="M51.15,73.28c-7.63,0-20.68-1.1-21.25-5.35-.59-4.5,13.07-5.74,21.25-5.74S73,63.43,72.39,67.93C71.82,72.18,58.77,73.28,51.15,73.28Zm0-9c-12.65,0-19.47,2.43-19.58,3.7.41,1.23,7.48,3.51,19.58,3.51s19.12-2.27,19.57-3.52C70.58,66.65,63.76,64.24,51.15,64.24Z"/><path class="cls-7" d="M38.4,8.71a35.72,35.72,0,0,1,8,12.39A48.2,48.2,0,0,1,49.54,35a49.86,49.86,0,0,1-.28,10.68c0,.33-.09.64-.13.93s-.1.57-.14.82c-.09.51-.18.95-.25,1.3s-.13.63-.17.81l-.07.28-.22-.18-.64-.5-1-.81-.62-.5-.71-.55c-2-1.55-4.72-3.59-7.76-5.7S31.13,37.3,28,35.2a60.76,60.76,0,0,1-8.43-6.42A50.51,50.51,0,0,1,14,22.66c-.34-.49-.66-.94-.95-1.4s-.53-.93-.77-1.38a12.63,12.63,0,0,1-.63-1.35c-.09-.23-.17-.45-.25-.68s-.15-.44-.22-.66a12.73,12.73,0,0,1-.5-2.69,13,13,0,0,1,0-2.65A15.72,15.72,0,0,1,12.4,6.61a12.41,12.41,0,0,1,3.38-4.29A9.37,9.37,0,0,1,18.18,1a10.36,10.36,0,0,1,3-.62q.41,0,.84,0l.87,0a16.28,16.28,0,0,1,3.84.79A18.91,18.91,0,0,1,28.82,2,33.43,33.43,0,0,1,38.4,8.71Z"/><path class="cls-8" d="M14.93,8a72.39,72.39,0,0,1,15,11.7A78.69,78.69,0,0,1,41.64,34.89,79.18,79.18,0,0,1,49.35,52.5a67.55,67.55,0,0,1,3.07,18.17"/><path class="cls-8" d="M44.42,40a80,80,0,0,0,2.23-10.8"/><path class="cls-8" d="M42.34,36.1a75.15,75.15,0,0,0-11.65-.45"/><path class="cls-8" d="M38,29.28a83.05,83.05,0,0,0,2.53-13.86"/><path class="cls-8" d="M34.45,24.69a72,72,0,0,0-13.33,2.13"/><path class="cls-8" d="M28.81,18.59c.13-.95.21-1.89.3-2.84s.16-1.93.2-2.89c.09-1.92.14-3.89.09-5.86"/><path class="cls-8" d="M26.36,16.32a68.48,68.48,0,0,0-10.55,2.9"/><path class="cls-7" d="M64.48,8.39a35.88,35.88,0,0,0-8,12.39,48.87,48.87,0,0,0-3.19,13.89,49.76,49.76,0,0,0,.29,10.68q.06.49.12.93c0,.29.1.57.15.82.09.51.17.95.25,1.3s.13.63.17.81l.07.28.21-.18.65-.5,1-.81c.2-.15.4-.32.62-.5s.47-.35.71-.55c2-1.55,4.72-3.59,7.77-5.7s6.41-4.27,9.55-6.37a59.59,59.59,0,0,0,8.43-6.42,49.85,49.85,0,0,0,5.52-6.12c.33-.49.65-.94.94-1.4s.54-.93.78-1.38a13.5,13.5,0,0,0,.62-1.35c.09-.23.18-.45.25-.68s.16-.44.22-.67a13.19,13.19,0,0,0,.51-2.68,12.36,12.36,0,0,0,0-2.65,15.49,15.49,0,0,0-1.64-5.24A12.38,12.38,0,0,0,87.1,2,9.26,9.26,0,0,0,84.69.65a10.36,10.36,0,0,0-3-.62c-.27,0-.55,0-.83,0L80,0A16.1,16.1,0,0,0,78.18.3a17,17,0,0,0-2,.53,18.91,18.91,0,0,0-2.13.82A33.26,33.26,0,0,0,64.48,8.39Z"/><path class="cls-8" d="M87.94,7.7a72.65,72.65,0,0,0-15,11.7A79.28,79.28,0,0,0,53.52,52.18a69.89,69.89,0,0,0-3.08,18.49"/><path class="cls-8" d="M58.46,39.68a77.05,77.05,0,0,1-2.23-10.8"/><path class="cls-8" d="M60.53,35.78a75.28,75.28,0,0,1,11.66-.45"/><path class="cls-8" d="M64.89,29A82,82,0,0,1,62.36,15.1"/><path class="cls-8" d="M68.42,24.37A72.12,72.12,0,0,1,81.76,26.5"/><path class="cls-8" d="M74.07,18.27c-.13-.95-.22-1.89-.3-2.84s-.16-1.93-.21-2.89c-.09-1.92-.14-3.89-.08-5.86"/><path class="cls-8" d="M76.51,16a68.3,68.3,0,0,1,10.56,2.9"/><path class="cls-7" d="M89,42.77c-.7.5-1.43,1-2.18,1.47-.38.25-.77.47-1.15.72l-1.15.74c-.78.48-1.58.95-2.39,1.42s-1.6,1-2.41,1.44l-1.23.7c-.41.23-.8.48-1.2.72-.8.48-1.61.94-2.41,1.39-.4.22-.79.46-1.17.7l-1.15.68-2.26,1.32c-1.42.89-2.8,1.7-4,2.45S64,58,63,58.55l-.66.4-.56.37-.92.59-.77.5.28-.89c.1-.29.22-.65.35-1.06l.23-.67.29-.73c.4-1,.91-2.26,1.51-3.66s1.39-2.87,2.23-4.49c.44-.8.92-1.6,1.41-2.43l.76-1.25c.26-.42.52-.85.81-1.26.57-.83,1.16-1.67,1.77-2.51.31-.42.61-.84.93-1.25l1-1.22q1-1.22,2.07-2.4c.73-.76,1.48-1.5,2.23-2.23l1.14-1.07c.38-.35.79-.66,1.18-1q1.2-1,2.4-1.83l.6-.43.6-.39,1.17-.74q1.15-.7,2.22-1.32c1.44-.78,2.79-1.4,4-1.92A16.9,16.9,0,0,1,91.1,25c.58-.18,1.12-.33,1.64-.46s1-.23,1.47-.31l.68-.1.65,0c3.38-.14,5.13,1.07,6,2.95s.59,4.06-1.35,6.5S94.64,38.8,89,42.77Z"/><path class="cls-8" d="M99.07,28.23a110.82,110.82,0,0,0-45.22,41.3"/><path class="cls-8" d="M66.45,52.82l1.92-.67c.65-.22,1.31-.41,2-.61L72.26,51c.64-.19,1.27-.38,1.93-.53"/><path class="cls-8" d="M69.27,49.83l.28-2.13.15-1.08.18-1.06c.25-1.41.51-2.85.8-4.3"/><path class="cls-8" d="M74.71,44.62c1.63-.13,3.22-.24,4.79-.33s3.18-.08,4.72-.09"/><path class="cls-8" d="M78.84,41.14c.39-1.59.81-3.22,1.27-4.84s1-3.21,1.53-4.85"/><path class="cls-8" d="M85,36.49c.64,0,1.3.1,2,.15l1.94.19c1.28.13,2.53.26,3.8.47"/><path class="cls-8" d="M87.61,34.76l.74-1.91c.25-.65.53-1.26.8-1.9.54-1.25,1.11-2.52,1.7-3.8"/><path class="cls-7" d="M13,45.12c.7.5,1.43,1,2.18,1.47.38.25.78.47,1.15.72s.76.5,1.15.74c.78.49,1.58,1,2.4,1.42s1.59,1,2.4,1.45l1.23.69,1.2.72c.8.48,1.61.94,2.41,1.39.41.22.79.46,1.17.7l1.16.69,2.25,1.31c1.42.89,2.8,1.71,4,2.45s2.3,1.46,3.22,2l.66.4.57.37.91.6.78.49s-.11-.32-.29-.89c-.1-.29-.21-.65-.35-1.06L41,60.15l-.28-.74c-.41-1-.92-2.26-1.52-3.66s-1.39-2.87-2.23-4.49c-.44-.8-.92-1.6-1.41-2.43l-.76-1.25c-.26-.42-.52-.85-.81-1.26-.57-.83-1.16-1.67-1.77-2.51-.3-.41-.61-.84-.93-1.25l-1-1.22c-.67-.8-1.37-1.61-2.07-2.4s-1.48-1.5-2.23-2.23l-1.14-1.06c-.38-.36-.79-.67-1.18-1q-1.2-1-2.4-1.83l-.6-.43L20,32l-1.17-.74c-.77-.48-1.5-.92-2.21-1.33-1.45-.78-2.8-1.4-4-1.92a16.76,16.76,0,0,0-1.78-.64c-.57-.18-1.12-.34-1.64-.47s-1-.23-1.47-.31l-.68-.1-.65,0C3,26.31,1.28,27.52.45,29.4s-.59,4.07,1.35,6.5S7.31,41.15,13,45.12Z"/><path class="cls-8" d="M2.88,30.58A110.72,110.72,0,0,1,46.89,70"/><path class="cls-8" d="M35.51,55.17l-1.93-.67-1.95-.6-1.94-.58c-.64-.18-1.27-.38-1.93-.53"/><path class="cls-8" d="M32.68,52.18l-.28-2.13L32.25,49l-.18-1.06c-.25-1.41-.51-2.84-.8-4.29"/><path class="cls-8" d="M27.24,47c-1.62-.14-3.22-.25-4.79-.34s-3.18-.07-4.72-.08"/><path class="cls-8" d="M23.12,43.5c-.4-1.6-.81-3.23-1.28-4.85s-1-3.21-1.53-4.85"/><path class="cls-8" d="M16.93,38.84c-.65,0-1.31.1-2,.16L13,39.18c-1.28.14-2.54.26-3.81.47"/><path class="cls-8" d="M14.34,37.12,13.6,35.2c-.24-.65-.53-1.26-.79-1.89Q12,31.42,11.1,29.5"/></g></g></svg>