<svg xmlns="http://www.w3.org/2000/svg" xmlns:xlink="http://www.w3.org/1999/xlink" viewBox="0 0 520.26 237.05"><defs><style>.cls-1{fill:none;}.cls-14,.cls-2{fill:#d4747a;}.cls-10,.cls-11,.cls-16,.cls-2,.cls-3,.cls-5,.cls-6,.cls-8{fill-rule:evenodd;}.cls-3{fill:#207773;}.cls-4{clip-path:url(#clip-path);}.cls-5{fill:#11534b;}.cls-6{fill:#f8ae6e;}.cls-7{clip-path:url(#clip-path-2);}.cls-9{clip-path:url(#clip-path-3);}.cls-10{fill:#d3761d;}.cls-11{fill:#569acc;}.cls-12{fill:#fff;}.cls-13{clip-path:url(#clip-path-4);}.cls-15{clip-path:url(#clip-path-5);}.cls-16{fill:#feeae5;}.cls-17{clip-path:url(#clip-path-6);}</style><clipPath id="clip-path" transform="translate(-33.7)"><path class="cls-1" d="M124.32,57.54s6.19-26.1,21.14-36.3a40.51,40.51,0,0,0,7.34-6c.8-.89,1.54-1.82,2.27-2.76.05-.07.1-.3.16-.23,1.34,1.63.3,7.31.28,9.32C155.27,42.3,144.66,54.67,124.32,57.54Z"/></clipPath><clipPath id="clip-path-2" transform="translate(-33.7)"><path class="cls-1" d="M377.32,21.44c.89-.93,1.71-1.76,2.4-2.43a35.37,35.37,0,0,1,5.35-4.32A37.29,37.29,0,0,1,400.23,9a30.71,30.71,0,0,1,22.68,5.4,27.61,27.61,0,0,1,4.43,4.08,35.67,35.67,0,0,1,5.31,4.82c6,6.62,7.94,17,6.09,26.63-1.78,9.32-7,17.92-15,22l8.87,9.65L362.24,147s-9.88-19.39-20.71-41c-15.44-7.19-39.95-18-45.47-17.2-6.73,1-17,12.46-20.42,16.51l5,3-3.49,5.41L258,102.3l3.49-5.4,7.51,4.47c2.35-3.8,19.46-31,25.83-29.77,4.7,1,21.66,3.19,31.82,4.5-7.71-15.72-13.44-27.85-12.8-27.95,1.83-.27,52.75-38.36,52.75-38.36Zm7.23,7.86s29.79,33.86,30,33.66c1-1,3.49-3.49,4.36-4.64a20.61,20.61,0,0,0,4-14.36,21.88,21.88,0,0,0-6.51-13.64,22.43,22.43,0,0,0-13.5-5.86A26.73,26.73,0,0,0,388,27.18,31.74,31.74,0,0,0,384.55,29.3Z"/></clipPath><clipPath id="clip-path-3" transform="translate(-33.7)"><path class="cls-1" d="M419.79,32.55c1.29-1.94.44-3.84-1.91-4.39C407.44,25.67,377,18.83,377,18.83c-7.34,9-3.34,13.73,5.46,16.17-3.84,9,.54,12.34,8.66,12.75-2.55,8.7,1.25,11.79,8.19,11.77-3.05,15,13.26,10.8,30.42,3.6S445.3,48.2,439.82,49.46c-3.27.76-8.48,2-14.09,3.34,16-6.55,14.73-14.16,9.13-13.21-2.88.49-7.18,1.25-12,2.11,8.89-4.34,8-9.57,3.46-9.4C424.61,32.35,422.36,32.44,419.79,32.55Z"/></clipPath><clipPath id="clip-path-4" transform="translate(-33.7)"><rect class="cls-1" y="118.16" width="290.46" height="124.88"/></clipPath><clipPath id="clip-path-5" transform="translate(-33.7)"><path class="cls-1" d="M146.71,32.63c0-30.9-36.85-39.48-50.82-16.49C85,10.65,70.3,21,75,32.63c-14.35-2.77-37.24,13-27.93,37C30.35,72.75,30,97.45,42.37,102.6c-10.86,5.15-8.14,25.05,7.37,24.36-12.41,8.57-7,37.05,14,37.74-12.41,8.92-1.55,26.07,11.25,18.87-11.63,14.06,1.16,33.91,23.66,29.13,1.55,29.88,48.1,35,48.1,0Z"/></clipPath><clipPath id="clip-path-6" transform="translate(-33.7)"><path class="cls-1" d="M151.22,32.63c0-30.9,36.85-39.48,50.82-16.49C212.9,10.65,227.64,21,223,32.63c14.35-2.77,37.24,13,27.93,37,16.67,3.09,17.07,27.79,4.66,32.94,10.85,5.15,8.14,25.05-7.38,24.36,12.41,8.57,7,37.05-14,37.74,12.41,8.92,1.55,26.07-11.25,18.87,11.64,14.06-1.16,33.91-23.66,29.13-1.55,29.88-48.1,35-48.1,0Z"/></clipPath></defs><title>regandoCerebroRecurso 1</title><g id="Capa_2" data-name="Capa 2"><g id="OBJECTS"><path class="cls-2" d="M458.19,63.37s85,55.82,95.1,57c0-14.82,1.52-46.62,0-53.74-.72-3.4-71-31.16-75.13-33.1C450.43,20.65,421.65,2.42,418.1.28,413.83-2.28,366.47,13.39,366,13.9c-1.05,1.28,4.89,10.16,15.63,9,11.4-1.23,20.68-1.93,20.68-1.93s5,16.46,16.15,28.29C428.74,60.12,432.63,81.62,458.19,63.37Z" transform="translate(-33.7)"/><path class="cls-3" d="M124.32,57.54s6.19-26.1,21.14-36.3a40.51,40.51,0,0,0,7.34-6c.8-.89,1.54-1.82,2.27-2.76.05-.07.1-.3.16-.23,1.34,1.63.3,7.31.28,9.32C155.27,42.3,144.66,54.67,124.32,57.54Z" transform="translate(-33.7)"/><g class="cls-4"><path class="cls-5" d="M155.26,7.27c.16.81.28,1.62.37,2.44,0,.49,0,1,0,1.5-.06,7.2-2.15,14.61-5.16,21.36A37.45,37.45,0,0,1,143.1,44a68.29,68.29,0,0,1-7.57,6.2l-.71.51c-2.39,1.75-4.63,3.67-7.18,5.26a22.12,22.12,0,0,1-2,1.1h0c-.65.2-1.29.4-1.94.57l-.19,0,.08-.13c.21-.1.23-.12.34-.18a10.38,10.38,0,0,0,1.3-.85s.63-.36,1.12-.67a64.37,64.37,0,0,0,6.18-4.65c4-3.19,8.6-6,11.83-10.1a49.93,49.93,0,0,0,8.06-16.23,45.7,45.7,0,0,0,2.47-15c0-.82,0-1.63-.09-2.44l0-.15a1,1,0,0,1,.15-.08l.16,0Z" transform="translate(-33.7)"/><path class="cls-5" d="M150.87,11.06c.14.22.29.43.43.64l.18.25.41.6.12.19c.16.22.3.44.44.67l.39.66c.17.3.34.59.5.89l.17.32c.46.86.94,1.72,1.39,2.59,0,.11.08.2.08.2a2.28,2.28,0,0,1-.74.36,5.27,5.27,0,0,1-.33-.5v0c-.16-.24-.36-.59-.36-.59l-.86-1.49-.07-.13c-.15-.25-.29-.5-.42-.76l-.12-.19c-.12-.24-.25-.47-.37-.7l-.08-.16-.37-.75L150.73,12c-.12-.23-.22-.46-.33-.68v-.19l.11-.13h.2Z" transform="translate(-33.7)"/><path class="cls-5" d="M148.61,13.42l.36.46c.28.34.54.7.79,1l0,.05c.3.45.6.92.9,1.39.61,1,1.16,2,1.7,3l0,0c.46.93.89,1.86,1.29,2.8v0l-.09.17-.2.09-.2-.06L153,22c-.05-.09-.09-.18-.13-.26-.34-.63-.67-1.27-1-1.9l-.23-.43c-.73-1.38-1.52-2.75-2.36-4.08,0,0-.42-.73-.7-1.19l-.3-.49a.22.22,0,0,1,.08-.27S148.51,13.31,148.61,13.42Z" transform="translate(-33.7)"/><path class="cls-5" d="M144.06,17.13c.31.65.62,1.28.94,1.89l.21.49c.31.72.63,1.45.95,2.17l.05.12c.23.53.45,1.06.68,1.58l0,.07c.2.46.38.93.57,1.4l.08.18c.25.64.49,1.28.73,1.92l0,.07c.69,1.89,1.32,3.8,1.84,5.71l0,.06-.13.1-.22.07-.17,0a1.34,1.34,0,0,0-.07-.18c-.87-2.47-1.9-4.9-3-7.3l-.21-.49c-.38-.89-.75-1.79-1.12-2.68l-.05-.12c-.37-.9-.72-1.8-1.07-2.7l0-.07-.63-2.08,0-.19.15-.13h.21Z" transform="translate(-33.7)"/><path class="cls-5" d="M146.77,18l.09.17.1.16c.44.79.89,1.57,1.33,2.35l.18.34c.7,1.34,1.37,2.68,1.95,4.09.29.72.53,1.45.75,2.19a16.89,16.89,0,0,1,.4,1.74l0,.11a.65.65,0,0,0-.07.16s0,.23-.25,0l-.15-.14a.75.75,0,0,1,0-.16,34.19,34.19,0,0,0-2.22-5.84c-.33-.69-.65-1.38-1-2.07l-.56-1.22c-.27-.59-.54-1.17-.8-1.75V18l.09-.09h.13Z" transform="translate(-33.7)"/><path class="cls-5" d="M148.28,16.21l.2.26.78,1.07.1.14.07.1A28.4,28.4,0,0,1,152,22.6a12,12,0,0,1,.7,2.51s0,.28,0,.59l-.1.15-.12-.07a1.78,1.78,0,0,0-.12-.3c0-.11-.1-.25-.1-.25a.57.57,0,0,1,0-.14,15.54,15.54,0,0,0-.7-2.09A34.65,34.65,0,0,0,149,18.07l-.16-.29-.09-.14L148,16.36l0-.12.08-.09S148.21,16.11,148.28,16.21Z" transform="translate(-33.7)"/><path class="cls-5" d="M158.42,14.19c-.25.71-.52,1.41-.84,2.11,0,0-.25.51-.42.84a37.2,37.2,0,0,1-1.95,3.31c-.14.22-.36.53-.36.53-.16.21-.29.35-.29.35l-.19.13-.18.14-.16,0v-.19l0-.15,0-.11a.7.7,0,0,0,0-.14l.19-.3.16-.26a63,63,0,0,0,3.6-6.25l.06-.12.2-.1C158.36,14.08,158.4,14.14,158.42,14.19Z" transform="translate(-33.7)"/><path class="cls-5" d="M158.57,18.6c-.1.17-.19.35-.29.53-.24.44-.51.88-.8,1.31l0,0a20.43,20.43,0,0,1-3,3.29s-.3.26-.53.44l-.39.28-.28.1-.2.07h-.16l.06-.19.11-.17.11-.19a25.76,25.76,0,0,0,3.8-3.8s.31-.36.54-.67.56-.76.81-1.15l.22-.07A1.89,1.89,0,0,0,158.57,18.6Z" transform="translate(-33.7)"/><path class="cls-5" d="M158.14,12.2a.49.49,0,0,1,0,.25,12.14,12.14,0,0,1-.62,1.61v0a15.17,15.17,0,0,1-2.13,3c-.24.26-.36.37-.36.37l-.24,0-.17-.11,0-.08c0-.19.05-.18.09-.23a22.83,22.83,0,0,0,2.56-3.68.53.53,0,0,0,.06-.1c.2-.35.38-.71.54-1.06,0,0,.1-.15.23-.13Z" transform="translate(-33.7)"/><path class="cls-5" d="M159.34,19.29A30.25,30.25,0,0,1,157.15,23a18.68,18.68,0,0,1-4.42,4.46,2.36,2.36,0,0,1-.44.25l-.31.07s-.29.08-.11-.18a1.9,1.9,0,0,1,.45-.54,30.51,30.51,0,0,0,6.8-7.87l.17-.07A.88.88,0,0,1,159.34,19.29Z" transform="translate(-33.7)"/><path class="cls-5" d="M140.71,20.28l1,1.24.06.07a72.7,72.7,0,0,1,5.83,9.62c.38.77.73,1.57,1.05,2.37l0,.06.18.48v.14a1.22,1.22,0,0,0,0,.34l-.07.12-.15,0a4.26,4.26,0,0,0-.33-.36c0-.07-.07-.15-.1-.23a80.7,80.7,0,0,0-7-12.16l-.21-.32-.69-1.11v-.15l.09-.13.17,0A.61.61,0,0,1,140.71,20.28Z" transform="translate(-33.7)"/><path class="cls-5" d="M137.77,20.8c.21.23.41.47.62.71.51.59,1,1.2,1.47,1.81l0,0a55,55,0,0,1,3.41,5.28l.05.08q1,1.83,1.92,3.72l.05.09c.56,1.21,1.09,2.42,1.59,3.65l0,.1.4,1,.06.14,0,.09-.06.24-.07.12a.83.83,0,0,1-.3-.14l-.06,0c-.18-.4-.37-.79-.56-1.18,0,0-.59-1.23-1.06-2.17-1.24-2.48-2.54-4.95-4-7.31-.65-1.13-1.36-2.24-2.09-3.32l-.75-1.15c-.36-.53-.72-1.06-1.1-1.58a.19.19,0,0,1,.05-.23S137.69,20.7,137.77,20.8Z" transform="translate(-33.7)"/><path class="cls-5" d="M136,24.16c2.1,3.36,4.73,6.53,6.8,10a26.44,26.44,0,0,1,1.3,2.39.24.24,0,0,0,0,.07,18.77,18.77,0,0,1,1.29,3.83l0,.16a.9.9,0,0,0,0,.16l-.08.12-.13-.06a1.45,1.45,0,0,0-.21-.24c-.11-.38-.23-.76-.37-1.13a27.61,27.61,0,0,0-1.2-2.67c-1.73-3.33-4.06-6.38-6.22-9.67a29.46,29.46,0,0,1-1.53-2.66l0-.07V24.2l.11-.12h.19Z" transform="translate(-33.7)"/><path class="cls-5" d="M134.23,25.51c.56.91,1.09,1.84,1.63,2.77l0,0c.16.29.32.59.49.88l0,.1c1,2,2.07,3.94,3.16,5.88l0,.06c.6,1.1,1.2,2.2,1.74,3.32.26.55.5,1.11.73,1.67l0,.06a25.7,25.7,0,0,1,.86,2.61l.08.84-.09.11-.13-.06a4.78,4.78,0,0,1-.38-.82c-1.11-3.2-3.07-6.17-4.84-9.46-.66-1.22-1.28-2.46-1.89-3.69l-.09-.18c-.62-1.31-1.23-2.63-1.89-3.91v-.18l.13-.13.2,0Z" transform="translate(-33.7)"/><path class="cls-5" d="M133.35,29c.38.79.79,1.55,1.22,2.3,0,0,.45.85.84,1.54.28.51.57,1,.85,1.54l0,0a34.08,34.08,0,0,1,1.8,3.82,29.82,29.82,0,0,1,1.18,4.14l0,.08c.24,1.13.46,2.26.68,3.4v.6l-.08.11-.13-.06-.13-.28-.11-.25a60,60,0,0,0-2.3-7.44c-1-2.35-2.21-4.58-3.33-6.88l0-.05c-.36-.8-.69-1.62-1-2.45l0-.16.13-.12h.19Z" transform="translate(-33.7)"/><path class="cls-5" d="M131.16,33.72c.92,2.4,2.16,4.39,3.24,6.61a29.79,29.79,0,0,1,1.65,4c.28.89.48,1.8.68,2.72l0,.09,0,.13c0,.15.05.31.09.45l0,.2a4.72,4.72,0,0,0-.1.64l-.08.12-.13-.06-.24-.35-.14-.17-.12-.37-.08-.26c-.27-1-.54-1.9-.86-2.84,0,0-.21-.7-.42-1.25-.8-2.24-2-4.34-3-6.54l-.19-.49a21.15,21.15,0,0,1-.82-2.52l0-.14.12-.09h.16Z" transform="translate(-33.7)"/><path class="cls-5" d="M129.28,34.91a64.74,64.74,0,0,0,2.61,8.43l.05.12c.37,1.09.74,2.18,1.07,3.27a17.3,17.3,0,0,1,.41,1.76v.07c0,.09,0,.19,0,.29.13.76.24,1.52.41,2.28l-.07.17-.09.11-.27-.14c-.44-1.58-.72-3.21-1.25-4.74-.89-2.59-1.86-5.16-2.59-7.85v0a32.15,32.15,0,0,1-.67-3.78l.14-.17A.29.29,0,0,1,129.28,34.91Z" transform="translate(-33.7)"/><path class="cls-5" d="M127.52,40.33a16.19,16.19,0,0,0,.6,1.9s.2.62.4,1.12.48,1.29.73,1.94l0,.06c.41,1.1.81,2.19,1.11,3.32v0a30.61,30.61,0,0,1,.57,3.45v.35c0,.19,0,.19,0,.38v.47l-.1.15-.13-.1,0-.14c-.05-.15-.05-.15-.11-.3l-.07-.19-.11-.33-.14-.67L130,50.53c-.11-.52-.23-1.05-.37-1.57,0,0-.11-.41-.22-.77-.55-1.93-1.35-3.77-1.91-5.7v-.06a17.07,17.07,0,0,1-.36-2l0-.13.13-.08.13,0Z" transform="translate(-33.7)"/><path class="cls-5" d="M126.43,43.9c.09.46.19.92.28,1.38l.09.53,0,0c.26,2.07.49,4.16.84,6.2.18,1,.36,2,.63,3l-.1,0-.36.11-.09,0a26.1,26.1,0,0,1-1.08-4.13v0c-.14-.87-.25-1.76-.35-2.64v0c-.07-.76-.13-1.52-.19-2.28l0-.13c0-.21,0-.49,0-.49V45.2c0-.13,0-.25,0-.39v-.32c0-.17,0-.35,0-.53,0,0,0-.17.17-.19l.13,0A.36.36,0,0,1,126.43,43.9Z" transform="translate(-33.7)"/><path class="cls-5" d="M159.49,23.87l0,.14-.08.16-.47.48c-.21.2-.41.4-.61.61l0,0-.57.49-.05,0-.71.58,0,0-1.45,1.1c-.66.48-1.34.95-2,1.42l-1,.61,0,0-.66.38-.17.05-.28.06-.14,0-.17,0-.15,0,.09-.19.16-.18.19-.26.91-.64c1.91-1.29,3.73-2.68,5.56-4.06l.76-.5.32-.21.26-.18.18-.06Z" transform="translate(-33.7)"/><path class="cls-5" d="M160.41,24.94l0,.1-.06.12-1.67,1.59-.46.41A56.8,56.8,0,0,1,152,31.81l-1.24.78-.05,0c-.28.17-.56.34-.85.5l-.18-.06-.12-.14v-.17l.77-.53,1.19-.82c2.06-1.43,4-2.93,6-4.49l.91-.68c.57-.42,1.14-.85,1.68-1.29l.15-.05Z" transform="translate(-33.7)"/><path class="cls-5" d="M159.71,29l0,.11-.08.11c-1.34.95-2.73,1.84-4.16,2.73l-.06,0c-2.09,1.25-4.24,2.48-6.42,3.82l-.2.12-.27.16a1.2,1.2,0,0,0-.27,0l-.16,0,.08-.24,0-.14.44-.3c.68-.46,1.38-.9,2.07-1.33l.1-.06c1.36-.82,2.75-1.61,4.13-2.41l1.72-1c.94-.53,1.86-1.07,2.77-1.63l.14,0S159.7,29,159.71,29Z" transform="translate(-33.7)"/><path class="cls-5" d="M159.76,31.12c-2.35,1.49-4.74,2.94-7.14,4.36l-.3.17-1.32.77-.07,0-1.15.65-.2.11-.14.07-1.29.73-.81.44-.22.1-.26,0-.15,0a.77.77,0,0,1,.18-.33l0,0,.76-.46.16-.1c.41-.25.82-.5,1.24-.74l.07,0c.92-.54,1.84-1.07,2.76-1.58l.81-.46c2.32-1.27,4.63-2.54,6.9-3.89l.18,0C159.79,31,159.77,31.07,159.76,31.12Z" transform="translate(-33.7)"/><path class="cls-5" d="M160.84,33.16l0,.13-.1.12c-1.33.82-2.7,1.59-4.06,2.33l-1.73.91-.08,0-2.21,1.09-.18.08-.24.12c-1.76.81-3.5,1.68-5.17,2.43a10.34,10.34,0,0,1-2.3.76s0,0-.11-.11l0-.19.06-.14.07,0A34.1,34.1,0,0,0,150,38.21l1.76-.85.89-.41,1.59-.75.17-.08,1.6-.74c1.53-.73,3-1.46,4.52-2.26l.17,0Z" transform="translate(-33.7)"/><path class="cls-5" d="M160.7,37.06c-1.32.67-2.67,1.31-4,1.91l0,0c-.8.32-1.59.64-2.39.94l-.11,0c-2.91,1.1-5.84,2.23-8.75,3.16l0,0-1.12.3-.36.08a15.76,15.76,0,0,1-1.67.29l0-.15c0-.15,0-.15,0-.32l.1,0a21.06,21.06,0,0,0,2.85-.79l1.26-.43c3.38-1.2,6.78-2.39,9.9-3.59l1.56-.58c.93-.36,1.85-.72,2.76-1.11l.19,0Z" transform="translate(-33.7)"/><path class="cls-5" d="M153.58,44h0l0,.15-.14.11c-1.33.44-2.68.79-4,1.09h0c-2.35.47-4.73.78-7.11,1.06h-.12l-.94.11h0l-.91.08-.12-.06-.23-.06-.11-.08.1-.11.21-.11.13-.09.73-.11.17,0,.89-.11.85-.11a78.89,78.89,0,0,0,8.64-1.42c.59-.15,1.2-.3,1.79-.47h.19A1.14,1.14,0,0,0,153.58,44Z" transform="translate(-33.7)"/><path class="cls-5" d="M154.8,46h0l0,.14-.14.09a78,78,0,0,1-14.93,2.23c-.57.05-1.14.07-1.7.11l-.28-.06-.27,0-.11-.09.11-.1.28-.09.25-.11c.55-.06,1.09-.11,1.65-.15h.07c3.29-.26,6.58-.53,9.87-1.06,1.68-.25,3.35-.58,5-1h.16Z" transform="translate(-33.7)"/><path class="cls-5" d="M151.24,48.54l0,.14a1.41,1.41,0,0,1-.5.17c-1.83.44-3.7.8-5.59,1.07a50.79,50.79,0,0,1-6.41.49h0c-1.14,0-2.26,0-3.4-.09h-.07c-.07-.35,0-.28.08-.44,2.09,0,4.21,0,6.33-.17A80.37,80.37,0,0,0,151,48.42l.15,0Z" transform="translate(-33.7)"/><path class="cls-5" d="M149.42,50.65h0l0,.14-.15.08c-1.55.29-3.1.54-4.66.74a56.21,56.21,0,0,1-8.85.45,28.79,28.79,0,0,1-3-.23l-.08-.16,0-.19.15-.14h.26c.9,0,1.8.09,2.7.1a71.77,71.77,0,0,0,8.61-.38c1.59-.14,3.19-.34,4.77-.56l.16,0Z" transform="translate(-33.7)"/><path class="cls-5" d="M143.07,53l-.06.12-.14.08-.8.15c-1.22.21-2.44.42-3.67.58a35.81,35.81,0,0,1-6.63.32s-.63,0-1-.08L130.1,54,130,54l-.11-.15-.08-.11.19-.11.13-.1a36.08,36.08,0,0,0,4.77.09c2.68-.12,5.33-.46,7.93-.8l.15,0A1,1,0,0,1,143.07,53Z" transform="translate(-33.7)"/><path class="cls-5" d="M142.75,55.59l-.07.17a1.76,1.76,0,0,1-.64.16,45.66,45.66,0,0,1-12.12.34c-.43-.06-.86-.14-1.27-.23-.11,0-.66-.16-.92-.24a.75.75,0,0,1,0-.21,1.58,1.58,0,0,1,.21-.38l.17,0c.57.11,1.14.22,1.72.3l.49.07a45.67,45.67,0,0,0,12-.19h.12l.18,0Z" transform="translate(-33.7)"/></g><path class="cls-6" d="M377.32,21.44c.89-.93,1.71-1.76,2.4-2.43a35.37,35.37,0,0,1,5.35-4.32A37.29,37.29,0,0,1,400.23,9a30.71,30.71,0,0,1,22.68,5.4,27.61,27.61,0,0,1,4.43,4.08,35.67,35.67,0,0,1,5.31,4.82c6,6.62,7.94,17,6.09,26.63-1.78,9.32-7,17.92-15,22l8.87,9.65L362.24,147s-9.88-19.39-20.71-41c-15.44-7.19-39.95-18-45.47-17.2-6.73,1-17,12.46-20.42,16.51l5,3-3.49,5.41L258,102.3l3.49-5.4,7.51,4.47c2.35-3.8,19.46-31,25.83-29.77,4.7,1,21.66,3.19,31.82,4.5-7.71-15.72-13.44-27.85-12.8-27.95,1.83-.27,52.75-38.36,52.75-38.36Zm7.23,7.86s29.79,33.86,30,33.66c1-1,3.49-3.49,4.36-4.64a20.61,20.61,0,0,0,4-14.36,21.88,21.88,0,0,0-6.51-13.64,22.43,22.43,0,0,0-13.5-5.86A26.73,26.73,0,0,0,388,27.18,31.74,31.74,0,0,0,384.55,29.3Z" transform="translate(-33.7)"/><g class="cls-7"><path class="cls-8" d="M366.91,8.29c.72-.68-3.53,10.3-20.73,23.41C329.35,44.52,315.76,48,313.76,47.87c-.91,0,12.07-9.76,25.29-19.48C351.74,19.07,364.64,10,366.91,8.29Z" transform="translate(-33.7)"/><path class="cls-8" d="M262.91,96.74c-3.68-1.89,1.7-6.41,5.94-3.81,2,1.21,13.65,8.49,15.58,9.76s-4.63,4.7-4.63,4.7L263,96.82Z" transform="translate(-33.7)"/><path class="cls-8" d="M343.18,110c.77,1.64-19.78-39.86-18.6-37.51s-9.22-6.76-5,1.74C323.68,82.45,342.43,108.39,343.18,110Z" transform="translate(-33.7)"/><path class="cls-8" d="M308.69,53.13l.07-.08s.12,0,.18,0c.74-.09,1.49-.15,2.23-.24a64.07,64.07,0,0,0,21.17-7c2.21-1.13,4.37-2.36,6.51-3.65A140.28,140.28,0,0,0,356,30.1c2.35-2,4.6-4,6.77-5.91a.08.08,0,0,1,.12.12c-2.09,2-4.29,4.09-6.54,6.16A132,132,0,0,1,340,43.77a72.61,72.61,0,0,1-6.58,3.87,61.76,61.76,0,0,1-22,6.89c-.77.08-1.54.16-2.32.18-.06,0-.14,0-.18,0l-.09-.07a1.48,1.48,0,0,0,0-.56.21.21,0,0,1-.21-.18.2.2,0,0,1,.19-.21A1.53,1.53,0,0,0,308.69,53.13Z" transform="translate(-33.7)"/><path class="cls-8" d="M374.87,18.16c-.37-.44-.75-3.7,3.07-1.24,3.29,2.11,10.71,9.83,12,11.23,2.86,3-.51,5.82-3.07,3.23C383.89,28.33,377.57,21.44,374.87,18.16Z" transform="translate(-33.7)"/><path class="cls-8" d="M415.35,63.74c-1.2-1.39-2.52-8.38.23-5.25.5.57,13.11,12.94,13.63,13.51,2.18,2.17-1.82,3.62-1.82,3.62C425.32,73.58,417.22,65.91,415.35,63.74Z" transform="translate(-33.7)"/></g><path class="cls-2" d="M419.79,32.55c1.29-1.94.44-3.84-1.91-4.39C407.44,25.67,377,18.83,377,18.83c-7.34,9-3.34,13.73,5.46,16.17-3.84,9,.54,12.34,8.66,12.75-2.55,8.7,1.25,11.79,8.19,11.77-3.05,15,13.26,10.8,30.42,3.6S445.3,48.2,439.82,49.46c-3.27.76-8.48,2-14.09,3.34,16-6.55,14.73-14.16,9.13-13.21-2.88.49-7.18,1.25-12,2.11,8.89-4.34,8-9.57,3.46-9.4C424.61,32.35,422.36,32.44,419.79,32.55Z" transform="translate(-33.7)"/><g class="cls-9"><path class="cls-8" d="M372.29,34.53c.43-.33.49-.57,1-.76,2.78-1.07,5.9-.88,8.92-1.07,13.39-.86,26.88-1,40.29-1a.31.31,0,0,1,.31.26.26.26,0,0,1-.26.29c-13.34,1.4-26.48,5.16-40,5.26-3.11,0-6.37.3-9.24-.93-.53-.23-.59-.47-1-.82a.68.68,0,0,1-.66-.65A.62.62,0,0,1,372.29,34.53Z" transform="translate(-33.7)"/><path class="cls-8" d="M380.48,49.58c1.33-.47,2.55-1,3.91-1.37a75.92,75.92,0,0,1,9.37-1.79c10.51-1.47,21.11-1.93,31.63-3.57a.33.33,0,0,1,.38.23.28.28,0,0,1-.23.35,255,255,0,0,1-26.61,6A118.39,118.39,0,0,1,384.46,51c-1.26,0-2.46-.13-3.72-.19a.68.68,0,0,1-.77-.52A.61.61,0,0,1,380.48,49.58Z" transform="translate(-33.7)"/><path class="cls-8" d="M391.56,62a13.94,13.94,0,0,1,4.07-2.55c2.11-.81,4.49-1,6.58-1.52,3.56-.88,7.11-1.77,10.72-2.45s7.23-1.14,10.86-1.73c2.25-.33,4.35-1.07,6.53-1.57A18.67,18.67,0,0,1,435,51.6a.35.35,0,0,1,.38.3.33.33,0,0,1-.3.36l-10.67,3.83-21.14,5.33L392.2,63.08a.7.7,0,0,1-.9-.28A.6.6,0,0,1,391.56,62Z" transform="translate(-33.7)"/></g><path class="cls-8" d="M122.4,100.66a.59.59,0,0,1-.22,0c-.56-.17-.86-.89-1.27-1.49a37.11,37.11,0,0,0-10.66-10c-5.79-3.78-12.11-6.79-17.31-11.59l-.42-.39a1.23,1.23,0,0,1-.09-1.84,1.26,1.26,0,0,1,1.61.24c6,5.67,13.84,8.84,20.57,13.93a35.72,35.72,0,0,1,8.65,9.24,1.28,1.28,0,0,1-.22,1.84A1.16,1.16,0,0,1,122.4,100.66Z" transform="translate(-33.7)"/><path class="cls-8" d="M124.14,180.7a1.79,1.79,0,0,1-.28-.2c-.32-.31-.34-.76-.24-1.49.63-4.59,1-9.2,1.33-13.83.9-12.17,1.54-24.37,1.33-36.63a78.6,78.6,0,0,0-.6-9.18c-3.36-25-16.18-48-21.05-72.86a101.91,101.91,0,0,1-2-18.92v-.2l0-.34c.14-.27.15-.37.4-.55a1.14,1.14,0,0,1,1.77,1,1.41,1.41,0,0,0,0,.29,107.45,107.45,0,0,0,3.61,25.73c2.43,9.43,5.79,18.61,9.06,27.77,4.43,12.46,8.67,25.1,10.38,38.19a113.21,113.21,0,0,1,.58,15.74c-.14,12.05-.76,24.12-1.83,36.1-.24,2.77-.52,5.55-.91,8.3-.1.74-.46,1.12-.94,1.2A1.33,1.33,0,0,1,124.14,180.7Z" transform="translate(-33.7)"/><path class="cls-6" d="M104.82,43.53c4.83-4.4,5.73-10.59,9-16.2,2.65-4.61,7.84-10.34,7-16.42-.66-4.63-3.66-3.94-6.54-5.78-1.55-1-2.41-3.11-4.09-4.24-2.62-1.76-4.78.4-5.54,1.43-1.27,1.72-2.81,11.88-2.45,22.17C102.33,30.49,104.82,43.53,104.82,43.53Z" transform="translate(-33.7)"/><path class="cls-6" d="M105.28,43.7c.64-6.92-2.63-12.09-3.89-18.64-1-5.38-1-13.54-5.44-17.25-3.38-2.83-5.07,0-8.28.89C86,9.18,84,8.32,82.1,8.8c-3,.76-3.12,4-3,5.33.19,2.23,5.51,10.75,12.26,17.91C95.28,36.2,105.28,43.7,105.28,43.7Z" transform="translate(-33.7)"/><path class="cls-6" d="M105.34,43.48c-3.07-6.12-8.41-8.3-12.82-12.89-3.64-3.78-7.83-10.54-13.37-10.76-4.22-.17-4.13,3.23-6.27,6-1.15,1.49-3.18,2-4.47,3.63-2,2.51-.47,5.28.31,6.31,1.31,1.72,10,5.36,19.25,7C93.33,43.66,105.34,43.48,105.34,43.48Z" transform="translate(-33.7)"/><path class="cls-6" d="M97.91,80.47c-.24-6.45-4-10.31-6-15.93-1.65-4.63-2.6-12.05-7.3-14.28-3.57-1.7-4.83,1.3-7.77,2.93-1.57.87-3.53.59-5.28,1.51-2.73,1.45-2.48,4.43-2.22,5.61.46,2,6.57,8.36,13.87,13.13C87.48,76.21,97.91,80.47,97.91,80.47Z" transform="translate(-33.7)"/><path class="cls-6" d="M97.92,80.43c-4.27,4.43-10.17,5.7-15.67,6-11.06.54-15.83.6-16.92-2.87-.59-1.85-2.19-3.18-2.87-5.2a4.86,4.86,0,0,1,2-5.75C66,71.51,74.49,71.71,82.81,74,87.66,75.33,97.92,80.43,97.92,80.43Z" transform="translate(-33.7)"/><path class="cls-6" d="M135.7,108.35c3.54-3.95,9.2-10.92,15.26-12,2.37-.42,6.18.06,6.12,3.66,0,1.58-.61,3.06-.5,4.67.12,1.84,1.48,4.4.44,6.15-2,3.29-6.57.5-9.39,1-9.57,1.6-12,4.23-17.74,8.42A25.3,25.3,0,0,1,135.7,108.35Z" transform="translate(-33.7)"/><path class="cls-6" d="M131,104.43c.95-5.48,2.14-14.79,6.62-19.42,1.75-1.81,5.14-3.75,6.89-.69.77,1.34,1,2.94,1.92,4.22,1,1.47,3.43,2.78,3.44,4.89,0,4-5.18,4.45-7.27,6.57-7.12,7.22-7.84,10.94-10.46,18A27.11,27.11,0,0,1,131,104.43Z" transform="translate(-33.7)"/><path class="cls-10" d="M114.75,12.75c-.14-.07,0-.09-.18-.08s-.47.25-.7.44a9.48,9.48,0,0,0-2.09,2.82,30.7,30.7,0,0,0-2.37,6A54.48,54.48,0,0,0,108,28.08a68.58,68.58,0,0,0-1,9.46.58.58,0,0,0,.53.6.55.55,0,0,0,.58-.52c.22-2,.92-5.41,1.76-9.16.45-2,.93-4.06,1.44-6a49.94,49.94,0,0,1,1.83-5.86,16.59,16.59,0,0,1,1.4-2.86,2.12,2.12,0,0,0,.38-.61c0-.15,0,0-.05-.19a.1.1,0,0,0,0-.15A.11.11,0,0,0,114.75,12.75Z" transform="translate(-33.7)"/><path class="cls-10" d="M109.23,13.54c-.16,0-.15-.06-.3,0s-.19.23-.27.35a14,14,0,0,0-2.07,5.17,67,67,0,0,0-.89,9.06.46.46,0,0,0,.42.5.47.47,0,0,0,.5-.42c.25-2.26.58-5.73,1.17-8.9a17.73,17.73,0,0,1,1.5-5c.06-.12.18-.22.2-.35s0-.12-.09-.28a.11.11,0,0,0,0-.15A.11.11,0,0,0,109.23,13.54Z" transform="translate(-33.7)"/><path class="cls-10" d="M78.57,29.62a.59.59,0,0,0,.07.29A3.39,3.39,0,0,0,80.37,31c1.51.67,3.34.92,4.67,1.62,3.47,1.62,6.55,3.83,9.85,5.7,1.44.81,2.94,1.49,4.45,2.18a.54.54,0,0,0,.73-.21.53.53,0,0,0-.22-.72c-1.09-.73-2.12-1.52-3.21-2.24-1.64-1.09-3.34-2.09-5-3.09a56.58,56.58,0,0,0-5.89-3.06,9.6,9.6,0,0,0-1.49-.46c-1.09-.26-2.27-.45-3.36-.71-.67-.16-1.25-.48-1.86-.61-.13,0-.17,0-.29,0a.11.11,0,0,0-.15,0A.1.1,0,0,0,78.57,29.62Z" transform="translate(-33.7)"/><path class="cls-10" d="M86.49,27.34c0-.1.17-.11.13-.16s.22.19.09.2a.3.3,0,0,0-.25.16c0,.05,0,.12.09.17.22.2.52.42.59.48,1,.79,2,1.62,3,2.41,1.54,1.2,3.09,2.38,4.67,3.52.46.33.91.67,1.39,1,.75.44,1.51.77,2.28,1.16a.34.34,0,0,0,.48-.08.33.33,0,0,0-.07-.48c-.66-.69-1.24-1.4-1.94-2.05s-1.44-1.18-2.17-1.76c-1.1-.86-2.2-1.72-3.35-2.53S89.14,27.78,87.93,27a3.63,3.63,0,0,0-1.28-.51c-.12,0-.22,0-.29,0s-.17,0-.19.09c-.06.25-.19,0-.07.29,0,0,0,.07,0,.12a.55.55,0,0,0,.18.33.11.11,0,0,0,.13.08A.12.12,0,0,0,86.49,27.34Z" transform="translate(-33.7)"/><path class="cls-10" d="M89.37,18.59c.41.59.72,1.19,1.14,1.76.59.83,1.25,1.59,1.81,2.42.36.55.7,1.12,1.05,1.7.23.38.48.74.71,1.13a.58.58,0,1,0,1.06-.49,12.77,12.77,0,0,0-.7-1.65,14,14,0,0,0-1.54-2.2,12.83,12.83,0,0,0-1.52-1.61,15,15,0,0,0-1.87-1.22.09.09,0,0,0-.14,0A.09.09,0,0,0,89.37,18.59Z" transform="translate(-33.7)"/><path class="cls-10" d="M83.08,54.94c-.16.18-.22.1-.29.33s.08.72.14,1.08a42.77,42.77,0,0,0,1.78,7.09A41.59,41.59,0,0,0,86.55,68a36.89,36.89,0,0,0,4.13,7,23.16,23.16,0,0,0,3.89,3.85.42.42,0,0,0,.59,0,.41.41,0,0,0,0-.59,34.48,34.48,0,0,1-3-4.26c-.91-1.42-1.84-2.9-2.68-4.48a66.37,66.37,0,0,1-3.15-6.87C85.62,61,85,59.42,84.53,57.88c-.31-.94-.28-2-.83-2.73-.15-.19-.21-.12-.41-.25a.11.11,0,0,0-.21,0Z" transform="translate(-33.7)"/><path class="cls-10" d="M80.23,60.44c-.22.17-.14-.07-.25.19s0,.32.09.48A16.28,16.28,0,0,0,82.35,66,38,38,0,0,0,85,69.57c1,1.17,2,2.22,2.88,3.28a.38.38,0,1,0,.62-.44c-.67-1.11-1.4-2.28-2.26-3.44-1.19-1.62-2.5-3.22-3.57-4.89a19.52,19.52,0,0,1-1.78-3.37c0-.11,0-.25-.12-.31-.28-.2,0,0-.3,0a.11.11,0,0,0-.13-.08A.1.1,0,0,0,80.23,60.44Z" transform="translate(-33.7)"/><path class="cls-10" d="M77,77.37a3.28,3.28,0,0,0,.45.31,16.28,16.28,0,0,0,1.8.44c1.78.5,3.48,1.22,5.26,1.75A16.65,16.65,0,0,0,88,80.5a.34.34,0,0,0,.38-.3.33.33,0,0,0-.28-.38,26.62,26.62,0,0,1-3.73-1.21,34.56,34.56,0,0,0-3.8-1.27,6.26,6.26,0,0,0-3.15-.42c-.17,0-.21.14-.37.24s-.1,0-.11.1A.1.1,0,0,0,77,77.37Z" transform="translate(-33.7)"/><path class="cls-10" d="M85.74,86.21c-3.33-.75-6.94.63-12.37-3.91C69,78.59,67.4,83,62.23,78c-.07-.07,1.16,5.94,4.89,7.93C73.59,89.32,85.74,86.21,85.74,86.21Z" transform="translate(-33.7)"/><path class="cls-8" d="M175,197.54a1.9,1.9,0,0,0,.34-.2c.38-.31.41-.77.29-1.49-.75-4.59-1.18-9.2-1.59-13.83a339.1,339.1,0,0,1-1.59-36.64,67.54,67.54,0,0,1,.71-9.17c4-25,19.35-48,25.17-72.87a84.62,84.62,0,0,0,2.36-18.91v-.2l-.06-.34c-.17-.27-.18-.37-.48-.55a1.38,1.38,0,0,0-2.11,1,2.81,2.81,0,0,1,0,.29,91.16,91.16,0,0,1-4.32,25.73c-2.9,9.42-6.93,18.61-10.83,27.77-5.3,12.46-10.37,25.1-12.41,38.19a94,94,0,0,0-.69,15.74c.16,12.05.9,24.12,2.19,36.1.29,2.77.61,5.55,1.08,8.3a1.31,1.31,0,0,0,1.13,1.2A2,2,0,0,0,175,197.54Z" transform="translate(-33.7)"/><path class="cls-11" d="M185.54,24.59c-2.83-2.22-7.82-3.32-9,1.46-1.59,6.17,5.74,15.08,5.74,15.08L180,40.24a42,42,0,0,0-5.52-1.72c-3.37-.81-14.47-1.74-13.6,5.22.66,5.36,6.93,7.07,11.14,7.68a42,42,0,0,0,4.2.57c.69,0,2.08,0,2.08,0s-5.64,3.37-8.12,5.23c-3.42,2.55-10.85,10.44-2.75,12.77,3.74,1.08,8.85-1.55,12.13-3.29,1.19-.63,2.39-1.21,3.56-1.87.61-.35,1.79-1.1,1.79-1.1s-10.62,14.78-.73,16.46c6.42,1.09,11.47-7.09,15-11.68.33-.44.1,1.11.13,1.66.09,1.7.07,3.39.28,5.08.44,3.51,3,11,7.73,8.07,3.53-2.18,4.09-7.1,4-11A16.5,16.5,0,0,0,211,69c-.12-.64-.84-2.28-.36-1.9,4.3,3.39,12.4,11,17.65,3.61,3.16-4.44-.81-8.33-4.18-10.66a64.36,64.36,0,0,0-5.89-2.95s18.08-6.24,13.49-12.81c-3.22-4.61-10.24-1.94-14.3-.16A41.51,41.51,0,0,0,212.13,47c-.08.06-.29.26-.24.16,1.56-3.15,15.63-14.39,8.32-19.25-4.53-3-10.7,3.2-13.31,6.52a50.42,50.42,0,0,0-2.84,4.33c-.38.63,2.69-7.51,2.75-12.1.09-6.49-7.26-10.43-11.54-4.49-3.13,4.36-3.67,11-3,15.71C192.27,37.87,190.35,28.35,185.54,24.59Z" transform="translate(-33.7)"/><ellipse class="cls-12" cx="196.89" cy="53.02" rx="8.37" ry="11.97" transform="translate(52.39 224.2) rotate(-72.16)"/><path class="cls-8" d="M197.52,47.13c0,.15-.06.07,0,.18a.85.85,0,0,0,.61.19c.19,0,.3-.11.49-.14a.25.25,0,0,0,.15-.48c-.16-.16-.24-.3-.44-.38a.85.85,0,0,0-.68,0c-.13.07,0,0-.09.15a.25.25,0,0,0-.3.21A.24.24,0,0,0,197.52,47.13Z" transform="translate(-33.7)"/><path class="cls-8" d="M193.56,47.65c.07.35-.19.16.08.39s.84,0,1.26.06a.32.32,0,0,0,.4-.24.34.34,0,0,0-.24-.4c-.41-.17-.82-.59-1.23-.44s0,0-.21.33a.16.16,0,0,0-.18.12A.15.15,0,0,0,193.56,47.65Z" transform="translate(-33.7)"/><path class="cls-8" d="M196.51,50.18c.17.27,0,.32.3.49a1.41,1.41,0,0,0,1.05.06c.18,0,.14-.13.3-.24a.29.29,0,0,0,.11-.57c-.11-.17-.07-.23-.24-.34a1.33,1.33,0,0,0-1.13-.15c-.3.12-.16.19-.37.43a.16.16,0,1,0,0,.32Z" transform="translate(-33.7)"/><path class="cls-8" d="M191.48,50.77c.09.17,0,.16.15.28a1.23,1.23,0,0,0,.7.19,6.45,6.45,0,0,0,1.36-.23.23.23,0,0,0,0-.45,6.79,6.79,0,0,0-1.3-.42,1.14,1.14,0,0,0-.71.08c-.17.09-.08.1-.2.24a.16.16,0,0,0-.17.14A.15.15,0,0,0,191.48,50.77Z" transform="translate(-33.7)"/><path class="cls-8" d="M189.06,47.88c.11.24-.11.15.11.27s.6-.06.92,0a.31.31,0,1,0,.11-.62,2.79,2.79,0,0,0-.93-.21.29.29,0,0,0-.13,0c-.2.17,0,0-.1.28a.16.16,0,0,0-.15.16A.16.16,0,0,0,189.06,47.88Z" transform="translate(-33.7)"/><path class="cls-8" d="M187.13,52.91c.14.21.08.28.3.4.4.21.9,0,1.35,0a.48.48,0,1,0,0-1c-.43,0-.87-.23-1.28-.1-.22.08-.17.17-.35.33a.15.15,0,0,0-.17.13A.15.15,0,0,0,187.13,52.91Z" transform="translate(-33.7)"/><path class="cls-8" d="M189.11,56.2c-.26.32-.17-.15-.2.26s.31.53.53.74a2.14,2.14,0,0,0,.86.53,1.78,1.78,0,0,0,.46,0,.31.31,0,0,0,.43-.12.31.31,0,0,0-.12-.42,3.7,3.7,0,0,0-.31-.46c-.26-.25-.57-.45-.84-.68-.08-.07-.15-.16-.25-.18-.4-.06.08,0-.31.13a.14.14,0,0,0-.21,0A.15.15,0,0,0,189.11,56.2Z" transform="translate(-33.7)"/><path class="cls-8" d="M192.11,54.62c0,.09-.05.06,0,.14s.39.24.61.32a3.08,3.08,0,0,0,.8.17.32.32,0,0,0,.4-.19.3.3,0,0,0-.18-.39,3.83,3.83,0,0,0-.28-.29,2,2,0,0,0-.75-.49c-.08,0-.1,0-.18,0a.41.41,0,1,0-.42.7Z" transform="translate(-33.7)"/><path class="cls-8" d="M198,53.32c-.14.61-.33-.12-.09.47.06.16.28.21.45.27a3.61,3.61,0,0,0,1.53.12.4.4,0,0,0,.45-.35.39.39,0,0,0-.35-.44c-.25-.11-.45-.3-.72-.42s-.49-.32-.74-.28c-.47.07,0,.05-.39.35a.16.16,0,0,0-.21.07A.16.16,0,0,0,198,53.32Z" transform="translate(-33.7)"/><path class="cls-8" d="M201.33,49.05c0,.3-.18.14,0,.38s.91.25,1.37.4a.3.3,0,0,0,.4-.15.3.3,0,0,0-.14-.4c-.41-.27-.75-.82-1.24-.77-.3,0,0,.05-.28.25a.16.16,0,0,0-.2.09A.14.14,0,0,0,201.33,49.05Z" transform="translate(-33.7)"/><path class="cls-8" d="M206.11,52.86c-.29.42-.18-.16-.23.34,0,.1.07.18.13.26a1.92,1.92,0,0,0,.58.52,4.79,4.79,0,0,0,.72.35.29.29,0,0,0,.41,0,.3.3,0,0,0,0-.42,4.41,4.41,0,0,0-.26-.59,3.33,3.33,0,0,0-.52-.71c-.07-.06-.13-.13-.23-.13-.49,0,.09,0-.37.17a.15.15,0,0,0-.22,0A.17.17,0,0,0,206.11,52.86Z" transform="translate(-33.7)"/><path class="cls-8" d="M203.13,54.39c0,.25-.07,0,0,.28a.41.41,0,0,0,.16.23,1.55,1.55,0,0,0,.62.26,4.43,4.43,0,0,0,.72.09.3.3,0,0,0,.26-.53,4.18,4.18,0,0,0-.52-.51,1.67,1.67,0,0,0-.62-.32.42.42,0,0,0-.27,0c-.23.1,0,0-.21.19a.14.14,0,0,0-.2.08A.14.14,0,0,0,203.13,54.39Z" transform="translate(-33.7)"/><path class="cls-8" d="M197,57.73c.13.15.06.19.23.28a2.46,2.46,0,0,0,1.18.08c.27,0,.52-.11.79-.15a.34.34,0,0,0,.35-.31.32.32,0,0,0-.3-.34,6.32,6.32,0,0,0-1.13-.24c-.35,0-.76-.1-1,.11s0,.05-.1.26a.16.16,0,0,0-.15.16A.14.14,0,0,0,197,57.73Z" transform="translate(-33.7)"/><path class="cls-8" d="M199.49,60.27c.1.24-.07.13.13.3a1,1,0,0,0,.56.1,2.55,2.55,0,0,0,1-.12,2.68,2.68,0,0,0,.6-.32.29.29,0,0,0,.24-.34.3.3,0,0,0-.35-.24c-.22,0-.41-.11-.63-.12a5.18,5.18,0,0,0-.88,0,1.06,1.06,0,0,0-.51.11c-.2.15,0,.06-.14.29a.16.16,0,0,0,0,.31Z" transform="translate(-33.7)"/><path class="cls-8" d="M204.56,58.12c.17.28-.13,0,.13.23a.31.31,0,0,0,.19,0,2.58,2.58,0,0,0,.87-.45.36.36,0,0,0,.2-.46.35.35,0,0,0-.45-.2,3.76,3.76,0,0,0-.9.15.27.27,0,0,0-.13.13c-.12.3,0-.06,0,.26a.15.15,0,0,0-.1.19A.14.14,0,0,0,204.56,58.12Z" transform="translate(-33.7)"/><path class="cls-8" d="M193.3,59.1c0,.1,0,0,0,.13s.32.17.5.22a6.55,6.55,0,0,0,1.4.18.33.33,0,0,0,.36-.29.32.32,0,0,0-.29-.35c-.44-.06-.87-.19-1.31-.25a1,1,0,0,0-.51,0c-.09,0,0,0-.09.1a.15.15,0,0,0-.19.11A.15.15,0,0,0,193.3,59.1Z" transform="translate(-33.7)"/><g class="cls-13"><path class="cls-14" d="M146.71,32.63c0-30.9-36.85-39.48-50.82-16.49C85,10.65,70.3,21,75,32.63c-14.35-2.77-37.24,13-27.93,37C30.35,72.75,30,97.45,42.37,102.6c-10.86,5.15-8.14,25.05,7.37,24.36-12.41,8.57-7,37.05,14,37.74-12.41,8.92-1.55,26.07,11.25,18.87-11.63,14.06,1.16,33.91,23.66,29.13,1.55,29.88,48.1,35,48.1,0Z" transform="translate(-33.7)"/><g class="cls-15"><path class="cls-16" d="M98.51,226.53c-.12-.1-.14-.23-.21-.36a1.89,1.89,0,0,1-.27-.82c-.1-.82,0-1.78,0-2.35a17,17,0,0,1,.42-7.6,24.22,24.22,0,0,1,5.43-9.94,18.49,18.49,0,0,1,8.24-5.44,15.06,15.06,0,0,1,6.48-.44,5,5,0,0,0,1,.07,10.7,10.7,0,0,0,1.1-.22.44.44,0,0,0,.56-.25.43.43,0,0,0-.24-.56,4.64,4.64,0,0,0-.8-.9,4,4,0,0,0-1-.47,13.15,13.15,0,0,0-7.87-.16,19.29,19.29,0,0,0-9.64,6.43,24.28,24.28,0,0,0-4.92,9.35,18.36,18.36,0,0,0,.1,10.45,25.51,25.51,0,0,0,.64,2.59c.15.32.31.65.6.75a.69.69,0,0,0,.45,0,.07.07,0,0,0,.08,0S98.55,226.54,98.51,226.53Z" transform="translate(-33.7)"/><path class="cls-16" d="M116.71,213.5a1.93,1.93,0,0,0,1.08.81,11,11,0,0,0,3,.34c.63,0,1.25,0,1.89,0a20.85,20.85,0,0,0,7.3-2,15,15,0,0,0,7-6.66,22.89,22.89,0,0,0,2.42-13.86,19.91,19.91,0,0,0-7-12.25,18.78,18.78,0,0,0-18.78-3.26,22.11,22.11,0,0,0-7,4.46.35.35,0,0,0-.06.49.36.36,0,0,0,.49.05,23.93,23.93,0,0,1,7.1-3.36,17.53,17.53,0,0,1,16.68,3.45,17.85,17.85,0,0,1,5.89,10.83,20.68,20.68,0,0,1-2.08,12.31,12.33,12.33,0,0,1-4.36,4.83,22.45,22.45,0,0,1-7.62,3c-.69.15-1.37.33-2.06.45a21.74,21.74,0,0,1-2.36.5,2.09,2.09,0,0,1-1.47-.21.08.08,0,0,0-.1,0A.07.07,0,0,0,116.71,213.5Z" transform="translate(-33.7)"/><path class="cls-16" d="M56.87,164.51s0,.05,0,.15a.06.06,0,0,0-.08.05.07.07,0,0,0,0,.09c0,.11,0,.14,0,.14l0,.05s.09,0,.14.06a12.07,12.07,0,0,0,1.57.53,16.67,16.67,0,0,0,4.26.31,31.88,31.88,0,0,0,13.92-4.11A37.14,37.14,0,0,0,84.54,156c7.89-7.6,11.75-18.24,5.55-28a15.36,15.36,0,0,0-5.64-5.06,23.44,23.44,0,0,0-7-2.48c-10.26-1.85-15.67,4.62-16.8,11.09-.71,4.08.28,8.18,2.82,10.2,1.71,1.38,4.15,1.91,7.15.74a15.74,15.74,0,0,0,3.74-2.21.34.34,0,1,0-.37-.57,17,17,0,0,1-3.77,1.59c-2.47.68-4.33.28-5.65-.87-2-1.77-2.75-5.16-2.12-8.55,1-5.57,5.79-11.08,14.62-9.38a21.14,21.14,0,0,1,6.32,2.32,13.34,13.34,0,0,1,4.81,4.36c5.5,8.83,1.73,18.27-5.37,25.07a38.44,38.44,0,0,1-7.32,5.44,34.37,34.37,0,0,1-12.87,4.49,39,39,0,0,1-4,.24c-.54,0-1,.07-1.59.07,0,0-.1,0-.14,0Z" transform="translate(-33.7)"/><path class="cls-16" d="M147.91,120.66c.22-.18.09.13.17-.15,0-.05,0-.09,0-.14a12.25,12.25,0,0,0-.68-1.8,9.46,9.46,0,0,0-3.45-3.76,16.91,16.91,0,0,0-6.86-2.16,23.45,23.45,0,0,0-9.19.51A21.12,21.12,0,0,0,113.23,128c-1.82,6.46-.66,13.44,3.93,17.49,2.68,2.36,6.55,3.7,11.57,3.35a.46.46,0,0,0,0-.91,14.44,14.44,0,0,1-10.14-4c-3.79-3.76-4.69-9.71-3-15.31a19.12,19.12,0,0,1,13-13.16,22.11,22.11,0,0,1,8.28-.71,16.1,16.1,0,0,1,6.21,1.53,10.08,10.08,0,0,1,3.36,2.83,17.13,17.13,0,0,1,1.09,1.45s0,.1.08.12c.26.12-.07,0,.22,0a.08.08,0,0,0,.14-.06Z" transform="translate(-33.7)"/><path class="cls-16" d="M133.37,130.85a.11.11,0,0,0,0,.06s0,0,0-.06.58,0,.74,0a8.26,8.26,0,0,1,2.24.35,18.09,18.09,0,0,1,2.24.71,34.27,34.27,0,0,1,6.35,3.5,10.67,10.67,0,0,1,4.2,6.06,23.48,23.48,0,0,1,1,5.95,28.2,28.2,0,0,1,0,3.69,18.61,18.61,0,0,1-.31,2.49.33.33,0,0,0,.19.43.34.34,0,0,0,.43-.2,14.37,14.37,0,0,0,1.08-2.44,18.1,18.1,0,0,0,.77-3.94,20.48,20.48,0,0,0-.15-4.49,16.71,16.71,0,0,0-2.27-6.51,10.84,10.84,0,0,0-3.41-3.46,34.23,34.23,0,0,0-7.14-3.21,14.14,14.14,0,0,0-2.63-.54,8.62,8.62,0,0,0-2.77.22c-.34.11-1.11.33-1.28.62-.06.09-.17.16-.13.24s-.11.07,0,.15-.12.12.13.16,0,0,.13.08.15.13.34.15a.07.07,0,0,0,.1,0,.07.07,0,0,0,0-.09c-.06-.09,0-.19-.09-.19s.1,0,.08,0,.13,0,.06,0,.22.05.09.07.14,0,.05.06S133.37,130.79,133.37,130.85Z" transform="translate(-33.7)"/><path class="cls-16" d="M108.21,154a9.65,9.65,0,0,0-3.07-1.08,5.66,5.66,0,0,0-.82-.06,13.63,13.63,0,0,0-8.93,3.28,25.54,25.54,0,0,0-7.55,11.21c-3.3,9.27-1.67,19.94,8.55,23.26a28.55,28.55,0,0,0,5.86,1.14,9.23,9.23,0,0,0,2-.07,7.11,7.11,0,0,0,2-.62.32.32,0,0,0,.2-.41.33.33,0,0,0-.41-.2,8,8,0,0,1-1.83.1,11.29,11.29,0,0,1-1.82-.16A26.93,26.93,0,0,1,97,188.64a11.73,11.73,0,0,1-7.12-6.1c-2-4.18-1.73-9.56,0-14.51a26.28,26.28,0,0,1,5.35-9,18.85,18.85,0,0,1,3.36-2.94,13.13,13.13,0,0,1,9.56-2,.09.09,0,0,0,.1,0A.07.07,0,0,0,108.21,154Z" transform="translate(-33.7)"/><path class="cls-16" d="M83.64,124.28c-.07-.22-.08-.39-.16-.59-.3-.71-.69-1.32-1-2a12.57,12.57,0,0,1-1-6.17,16.56,16.56,0,0,1,.87-4.12,25,25,0,0,1,7.79-10.76,26.56,26.56,0,0,1,2.29-1.92,2.33,2.33,0,0,1,1.2-.5,3,3,0,0,1,2.55.93c1.36,1.59,1.48,4.42,2.13,7,.76,3.08,2.07,5.9,5.37,7.15a9.94,9.94,0,0,0,5,.44,14.75,14.75,0,0,0,4.53-1.51,15.44,15.44,0,0,0,6.18-6.51,39.69,39.69,0,0,0,3.83-12.3c2-12.27-6.53-20.87-16.77-24.08-7.45-2.34-15.81-1.84-21.48,2.15A14.29,14.29,0,0,0,82,74.18a14.77,14.77,0,0,0-2.64,5.11.58.58,0,0,0,1.08.4,14.86,14.86,0,0,1,3-4.24,16.54,16.54,0,0,1,2.62-2.19c5.27-3.51,12.85-3.88,19.63-1.68,9.12,3,16.84,10.56,15,21.51a36.88,36.88,0,0,1-3.61,11.47A12.9,12.9,0,0,1,112,110a12,12,0,0,1-3.72,1.22,7.31,7.31,0,0,1-3.63-.32c-2.92-1.12-3.47-4.07-4-6.82-.52-2.59-1-5.09-2.35-6.66a5.58,5.58,0,0,0-4.69-1.89,4.5,4.5,0,0,0-2.11.62,20.65,20.65,0,0,0-3.07,2.42c-4.31,3.69-8.15,9.38-8.9,15.1a14.15,14.15,0,0,0-.13,1.94,11.79,11.79,0,0,0,2.37,7.27,6.86,6.86,0,0,0,1.16,1.19,1.93,1.93,0,0,0,.49.31c.08,0,.1,0,.19,0a.08.08,0,0,0,.1,0A.09.09,0,0,0,83.64,124.28Z" transform="translate(-33.7)"/><path class="cls-16" d="M71.18,63.23A22.56,22.56,0,0,0,59.73,76.06a24,24,0,0,0-1.5,8.8,19.13,19.13,0,0,0,2.21,8.77c3.66,6.7,11.73,10,22.38,2.3a46.47,46.47,0,0,0,7.58-7.21.46.46,0,0,0,0-.65.47.47,0,0,0-.65,0,53.62,53.62,0,0,1-8,6.23c-9.53,6.06-16.14,4-19.26-1.78a18.16,18.16,0,0,1-2-7.75,24.41,24.41,0,0,1,1.05-8.11,25.54,25.54,0,0,1,3.73-7.38,25.28,25.28,0,0,1,6-5.94.1.1,0,0,0,0-.1A.07.07,0,0,0,71.18,63.23Z" transform="translate(-33.7)"/><path class="cls-16" d="M105.64,71.33c0-.44.2,0,0-.4,0,0,0-.09,0-.12a1.94,1.94,0,0,1-.22-.57,16.28,16.28,0,0,1-.3-4.79c.06-1.37.19-2.87.33-4.38a70.28,70.28,0,0,1,1.38-9.88A17.46,17.46,0,0,1,111,45.42a22,22,0,0,1,6-3.93,20,20,0,0,1,5.5-1.72,8.09,8.09,0,0,1,3.44.18c10.14,3,12.45,10.25,11,16.43a15.1,15.1,0,0,1-4.64,8A6.87,6.87,0,0,1,127,66.24c-1.75-.25-3.47-1.41-5-3.67a8.1,8.1,0,0,1-1.46-3.78,8.71,8.71,0,0,1,0-1.84,16.84,16.84,0,0,1,1.07-4.5.45.45,0,0,0-.2-.61.46.46,0,0,0-.61.2,14.92,14.92,0,0,0-2.11,4.36,6.86,6.86,0,0,0-.19,1.26,9.66,9.66,0,0,0,1.67,6.09c1.89,3,4.16,4.44,6.43,4.84,5.45.94,11.34-4.54,13.13-11.52,1.92-7.43-.67-16.4-12.9-20.11a11.07,11.07,0,0,0-4.77-.23,23.33,23.33,0,0,0-6.32,2.06,25,25,0,0,0-6.69,4.62,20,20,0,0,0-4.61,6.77,56.22,56.22,0,0,0-1.27,10.75c-.05,1.56,0,3.12,0,4.54a17.72,17.72,0,0,0,.7,4.75,3,3,0,0,0,.72,1.21c.24.2.46.47.7.37.43-.17,0,.08.28-.33,0,0,.07,0,.08-.06S105.68,71.34,105.64,71.33Z" transform="translate(-33.7)"/><path class="cls-16" d="M71.7,28.58s0,0-.06.08a.09.09,0,0,0-.11,0,.08.08,0,0,0,0,.1c0,.12-.06.07,0,.18,0,.27.19.47.25.73.17.72.18,1.53.39,2.28a2.83,2.83,0,0,0,1,1.48,55,55,0,0,0,5.72,4.29,25.61,25.61,0,0,0,6.66,3,18.38,18.38,0,0,0,14.44-1.84,22.82,22.82,0,0,0,3-1.89A9.16,9.16,0,0,0,104.1,36a7.29,7.29,0,0,0,1.28-1.75,5.74,5.74,0,0,0,.46-1.36.5.5,0,1,0-.92-.37,7.73,7.73,0,0,1-.75.94,8.68,8.68,0,0,1-1.27,1.23c-.36.28-.74.52-1.12.77A31.49,31.49,0,0,1,98.91,37a16.91,16.91,0,0,1-10.21,1.9,25.16,25.16,0,0,1-7.58-2.49,69,69,0,0,1-7.25-4.07c-1.11-.71-.82-2.12-1.36-3.05a2,2,0,0,0-.69-.72s0,0-.06,0Z" transform="translate(-33.7)"/></g><path class="cls-14" d="M151.22,32.63c0-30.9,36.85-39.48,50.82-16.49C212.9,10.65,227.64,21,223,32.63c14.35-2.77,37.24,13,27.93,37,16.67,3.09,17.07,27.79,4.66,32.94,10.85,5.15,8.14,25.05-7.38,24.36,12.41,8.57,7,37.05-14,37.74,12.41,8.92,1.55,26.07-11.25,18.87,11.64,14.06-1.16,33.91-23.66,29.13-1.55,29.88-48.1,35-48.1,0Z" transform="translate(-33.7)"/><g class="cls-17"><path class="cls-16" d="M199.46,226.65a.76.76,0,0,0,.4,0,1.27,1.27,0,0,0,.55-.73,24.51,24.51,0,0,0,.57-2.6,17.32,17.32,0,0,0,.43-8.28,23.53,23.53,0,0,0-3.15-8.16,24.94,24.94,0,0,0-2.23-3.06,19.49,19.49,0,0,0-9.46-6.3,13.32,13.32,0,0,0-7.68.08,4.34,4.34,0,0,0-1,.42,5,5,0,0,0-.84.75.31.31,0,0,0-.18.41.32.32,0,0,0,.41.18c.39,0,.68.09,1.06.07a7.64,7.64,0,0,0,1-.13,14.85,14.85,0,0,1,6.66.36,18.7,18.7,0,0,1,8.43,5.58,24.23,24.23,0,0,1,5.42,10.14,17,17,0,0,1,.29,7.7c-.1.56,0,1.53-.1,2.33a1.89,1.89,0,0,1-.33.86,1,1,0,0,1-.26.32.05.05,0,0,0,0,.07S199.42,226.66,199.46,226.65Z" transform="translate(-33.7)"/><path class="cls-16" d="M181.13,213.42a2.13,2.13,0,0,1-1.47.3,20.08,20.08,0,0,1-2.39-.4c-.58-.09-1.15-.22-1.74-.33a24.32,24.32,0,0,1-6.61-2.18,13.07,13.07,0,0,1-6-5.81,20.93,20.93,0,0,1-2.13-12.52,18.17,18.17,0,0,1,6-11,17.72,17.72,0,0,1,17-3.42,23.71,23.71,0,0,1,7.08,3.51.26.26,0,0,0,.36,0,.26.26,0,0,0,0-.36,22.45,22.45,0,0,0-7-4.31,18.59,18.59,0,0,0-18.5,3.29,19.61,19.61,0,0,0-6.82,12.06,22.59,22.59,0,0,0,2.37,13.64,14.64,14.64,0,0,0,6.87,6.53,21,21,0,0,0,7.19,2,16.63,16.63,0,0,0,1.86.05,11.37,11.37,0,0,0,2.94-.22,2,2,0,0,0,1.08-.73,0,0,0,0,0,0-.07A.06.06,0,0,0,181.13,213.42Z" transform="translate(-33.7)"/><path class="cls-16" d="M241.09,164.68c-.09-.18.1,0-.07-.13s-.09,0-.14,0c-.53,0-1,0-1.58,0a34.45,34.45,0,0,1-4-.16,34.05,34.05,0,0,1-13-4.45,38.38,38.38,0,0,1-7.39-5.48c-7.2-6.91-11-16.51-5.4-25.47a13.61,13.61,0,0,1,4.93-4.45,21.56,21.56,0,0,1,6.41-2.35c9-1.71,13.86,3.92,14.91,9.61.64,3.48-.11,7-2.21,8.78-1.37,1.18-3.31,1.59-5.85.85a16.32,16.32,0,0,1-3.76-1.67.25.25,0,0,0-.35.07.24.24,0,0,0,.07.34,15.56,15.56,0,0,0,3.75,2.13c2.93,1.1,5.28.59,6.95-.75,2.46-2,3.42-6,2.72-10-1.12-6.34-6.44-12.68-16.51-10.85a23,23,0,0,0-6.9,2.45,15.21,15.21,0,0,0-5.53,5c-6.11,9.65-2.25,20.13,5.53,27.62a37.49,37.49,0,0,0,7.76,5.74,32.17,32.17,0,0,0,13.78,4.16,18,18,0,0,0,4.23-.24A12.23,12.23,0,0,0,241,165s.11,0,.14-.05,0,.05,0-.14c0,0,.05,0,.05-.06S241.11,164.67,241.09,164.68Z" transform="translate(-33.7)"/><path class="cls-16" d="M150.14,120.71c.17,0,0,.09.17,0s.05-.08.08-.12a16.14,16.14,0,0,1,1-1.49,10.15,10.15,0,0,1,3.38-3,16.31,16.31,0,0,1,6.3-1.61,22.14,22.14,0,0,1,8.4.68,19.36,19.36,0,0,1,13.22,13.39c1.67,5.71.74,11.8-3.16,15.6-2.35,2.29-5.72,3.8-10.33,3.87a.34.34,0,0,0-.34.33.33.33,0,0,0,.32.34c5,.27,8.75-1.08,11.38-3.44,4.48-4,5.61-10.85,3.82-17.19A20.88,20.88,0,0,0,170,113.48a23.18,23.18,0,0,0-9.07-.54,16.93,16.93,0,0,0-6.77,2.08,9.52,9.52,0,0,0-3.44,3.64,12.27,12.27,0,0,0-.73,1.75s-.06.09-.05.13,0,0,.13.13a0,0,0,0,0,0,.07A.05.05,0,0,0,150.14,120.71Z" transform="translate(-33.7)"/><path class="cls-16" d="M164.78,130.87a1,1,0,0,0,.3-.16c.09,0,0-.05.11-.07s0,0,.05-.06,0,0,.07-.18-.06-.13-.11-.2a2.79,2.79,0,0,0-1.2-.53,8.27,8.27,0,0,0-2.7-.14,13.73,13.73,0,0,0-2.58.56,34.52,34.52,0,0,0-7,3.24,10.71,10.71,0,0,0-3.29,3.34,16.71,16.71,0,0,0-2.26,6.37,21.25,21.25,0,0,0-.19,4.43,17.85,17.85,0,0,0,.67,3.9,14.38,14.38,0,0,0,1,2.45.26.26,0,0,0,.32.15.25.25,0,0,0,.14-.32,18,18,0,0,1-.42-2.48,26.75,26.75,0,0,1-.13-3.73,22.5,22.5,0,0,1,1-6.05,10.9,10.9,0,0,1,4.33-6.28,33.74,33.74,0,0,1,6.46-3.46,17.36,17.36,0,0,1,2.28-.69,7.93,7.93,0,0,1,2.32-.27c.18,0,.85-.13.8.09s.08-.14,0-.17.19,0,.12,0,.07,0,0,0,0,.11-.12.18a.07.07,0,0,0,0,.07A.05.05,0,0,0,164.78,130.87Z" transform="translate(-33.7)"/><path class="cls-16" d="M189.76,154.08a12.12,12.12,0,0,1,3.08-.31,12.29,12.29,0,0,1,6.62,2.08,19,19,0,0,1,3.44,3,26.44,26.44,0,0,1,5.41,9.13c1.76,5,2,10.49,0,14.73a12,12,0,0,1-7.3,6.23,28.24,28.24,0,0,1-5.45,1.64,12.65,12.65,0,0,1-1.84.13,8.79,8.79,0,0,1-1.85-.18.24.24,0,0,0-.3.15.23.23,0,0,0,.15.29,7,7,0,0,0,1.94.56,9.72,9.72,0,0,0,2,0,28.76,28.76,0,0,0,5.79-1.22c10-3.27,11.59-13.78,8.35-22.9a25.49,25.49,0,0,0-7.44-11.11,13.19,13.19,0,0,0-8.76-3.33,9.07,9.07,0,0,0-3.16.66,6.82,6.82,0,0,0-.72.35.06.06,0,0,0,0,.07A.06.06,0,0,0,189.76,154.08Z" transform="translate(-33.7)"/><path class="cls-16" d="M214.39,124.37a.75.75,0,0,0,.16-.05A1.87,1.87,0,0,0,215,124a7.83,7.83,0,0,0,1.1-1.22,12.31,12.31,0,0,0,2.08-9.07c-.71-5.65-4.57-11.24-8.83-14.87a22.25,22.25,0,0,0-3-2.38,4.34,4.34,0,0,0-2-.58,5.23,5.23,0,0,0-4.4,1.77c-1.56,1.83-1.88,5-2.61,8-.57,2.34-1.42,4.58-3.93,5.55a7.74,7.74,0,0,1-3.8.33,12.33,12.33,0,0,1-3.83-1.26,13.24,13.24,0,0,1-5.28-5.57,37.52,37.52,0,0,1-3.65-11.58c-1.85-11.13,6-18.86,15.25-21.85C199,69.07,206.69,69.46,212,73a16.19,16.19,0,0,1,2.65,2.25,14.84,14.84,0,0,1,2.93,4.36.42.42,0,1,0,.78-.3,14.59,14.59,0,0,0-2.67-5,14.38,14.38,0,0,0-2.84-2.56c-5.62-3.93-13.88-4.41-21.24-2.09-10.09,3.18-18.48,11.65-16.53,23.74a39.35,39.35,0,0,0,3.8,12.19,15.12,15.12,0,0,0,6,6.36,14.51,14.51,0,0,0,4.41,1.47,9.57,9.57,0,0,0,4.79-.43c3.18-1.2,4.42-3.93,5.15-6.9.66-2.67.81-5.56,2.21-7.19a3.34,3.34,0,0,1,2.83-1.06,2.75,2.75,0,0,1,1.4.56,25.57,25.57,0,0,1,2.31,2,25.15,25.15,0,0,1,7.86,10.94,16.4,16.4,0,0,1,.85,4.21,12.41,12.41,0,0,1-1.17,6.26c-.31.65-.71,1.26-1.06,1.94a5.42,5.42,0,0,0-.22.56,0,0,0,0,0,0,.07A0,0,0,0,0,214.39,124.37Z" transform="translate(-33.7)"/><path class="cls-16" d="M226.69,63.33a25.6,25.6,0,0,1,10,13.26,24,24,0,0,1,1.11,8.2,18.26,18.26,0,0,1-2,7.88c-3.19,5.9-10,8.13-19.68,1.86a53.43,53.43,0,0,1-8-6.36.34.34,0,1,0-.48.47,47.3,47.3,0,0,0,7.64,7.07c10.51,7.46,18.38,4.35,22-2.23a19.07,19.07,0,0,0,2.18-8.63,23.46,23.46,0,0,0-12.66-21.61.07.07,0,0,0-.07,0S226.66,63.32,226.69,63.33Z" transform="translate(-33.7)"/><path class="cls-16" d="M192.32,71.45c.15.23,0,.15.23.23s.42-.17.62-.35a3,3,0,0,0,.65-1.16,17.41,17.41,0,0,0,.63-4.7c.06-1.42.07-3,0-4.52a58,58,0,0,0-1.29-10.64,19.68,19.68,0,0,0-4.54-6.63A24.38,24.38,0,0,0,182,39.16a22.92,22.92,0,0,0-6.2-2,10.75,10.75,0,0,0-4.6.23C159.27,41,156.72,49.71,158.57,57c1.72,6.79,7.39,12.19,12.71,11.29,2.19-.37,4.39-1.78,6.23-4.68a9.39,9.39,0,0,0,1.65-5.91,7.3,7.3,0,0,0-.18-1.23,15,15,0,0,0-2-4.35.33.33,0,1,0-.59.3,16.91,16.91,0,0,1,1.19,4.29c0,.36.08.71.1,1.07a8.14,8.14,0,0,1-1.52,5c-1.58,2.36-3.36,3.55-5.19,3.82a7.14,7.14,0,0,1-5.58-1.92,15.51,15.51,0,0,1-4.8-8.16c-1.52-6.34.83-13.85,11.25-16.92a8.45,8.45,0,0,1,3.62-.19,21,21,0,0,1,5.6,1.76,22.49,22.49,0,0,1,6.12,4,17.87,17.87,0,0,1,4.21,5.9,68,68,0,0,1,1.37,10c.13,1.52.24,3,.28,4.41a16,16,0,0,1-.39,4.85,2,2,0,0,1-.3.62s0,.07-.08.12c-.11.22,0,0,0,.3,0,0,0,0,0,.06A.05.05,0,0,0,192.32,71.45Z" transform="translate(-33.7)"/><path class="cls-16" d="M226.31,28.68c-.12-.08,0-.06-.1-.06s0,0-.06,0a2,2,0,0,0-.62.71c-.52,1-.24,2.41-1.37,3.15a63.25,63.25,0,0,1-7.2,4.2,24.75,24.75,0,0,1-7.69,2.54,17.18,17.18,0,0,1-10.39-2c-1-.5-1.95-1-2.88-1.66-.39-.26-.77-.52-1.13-.81a8.67,8.67,0,0,1-1.27-1.3,6.54,6.54,0,0,1-.71-1,.37.37,0,0,0-.47-.2.38.38,0,0,0-.21.48,6.48,6.48,0,0,0,.51,1.31A7.3,7.3,0,0,0,194,35.77a9.65,9.65,0,0,0,1.16,1,22.79,22.79,0,0,0,3,1.86,18.15,18.15,0,0,0,14.22,1.77,26.26,26.26,0,0,0,6.59-3,57,57,0,0,0,5.76-4.18,2.71,2.71,0,0,0,.92-1.39c.23-.74.23-1.56.43-2.27a2,2,0,0,1,.31-.73l0-.06c0-.13,0,0-.05-.09a.06.06,0,0,0,0-.08A0,0,0,0,0,226.31,28.68Z" transform="translate(-33.7)"/></g></g></g></g></svg>