<svg xmlns="http://www.w3.org/2000/svg" xmlns:xlink="http://www.w3.org/1999/xlink" viewBox="0 0 319.82 297.93"><defs><style>.cls-1{isolation:isolate;}.cls-2{fill:url(#linear-gradient);}.cls-3{fill:url(#linear-gradient-2);}.cls-4{fill:url(#linear-gradient-3);}.cls-5{fill:url(#linear-gradient-4);}.cls-6{fill:url(#linear-gradient-5);}.cls-7{fill:url(#linear-gradient-6);}.cls-8{fill:url(#linear-gradient-7);}.cls-9{fill:#ececec;}.cls-10{fill:#b7b7b7;}.cls-11{fill:#1ab7c9;}.cls-12{fill:#324b4f;}.cls-13{fill:#a56a81;}.cls-14{fill:#774d5e;}.cls-15{fill:#724708;}.cls-16{fill:#301f06;}.cls-17{fill:#1399a0;}.cls-18{fill:#c19640;}.cls-19{fill:#95b0b4;}.cls-20{fill:#ae9dde;}.cls-21,.cls-23{fill:#26269e;}.cls-21,.cls-22{opacity:0.5;}.cls-21,.cls-22,.cls-26,.cls-28,.cls-29{mix-blend-mode:multiply;}.cls-24{fill:#7969a7;}.cls-25{fill:#ffc7a1;}.cls-26,.cls-28,.cls-30{fill:#c98150;}.cls-26,.cls-29{opacity:0.58;}.cls-27{fill:#efaf84;}.cls-28{opacity:0.2;}.cls-31{fill:#d8ac4a;}.cls-32{fill:#f9bb91;}.cls-33{fill:#c18e29;}.cls-34{fill:#eab83d;}.cls-35{fill:#f4d6a6;}.cls-36{fill:#fff;}.cls-37{fill:#c9f7f7;}.cls-38{fill:#fff064;}.cls-39{fill:none;stroke:#301f06;stroke-linecap:round;stroke-linejoin:round;}</style><linearGradient id="linear-gradient" x1="251.17" y1="-28.39" x2="209.74" y2="88.28" gradientUnits="userSpaceOnUse"><stop offset="0.3" stop-color="#fff"/><stop offset="0.56" stop-color="#fff16f"/><stop offset="0.81" stop-color="#fff064"/></linearGradient><linearGradient id="linear-gradient-2" x1="212.98" y1="-16.91" x2="171.55" y2="99.76" gradientTransform="translate(30.32 133.98) rotate(-43.49)" xlink:href="#linear-gradient"/><linearGradient id="linear-gradient-3" x1="134.77" y1="-35.98" x2="93.34" y2="80.68" gradientTransform="translate(195.15 189.41) rotate(-111.83)" xlink:href="#linear-gradient"/><linearGradient id="linear-gradient-4" x1="74.46" y1="-86.33" x2="33.03" y2="30.35" gradientTransform="matrix(-0.95, -0.31, 0.31, -0.95, 250.36, 92.86)" xlink:href="#linear-gradient"/><linearGradient id="linear-gradient-5" x1="67.02" y1="-165.71" x2="25.59" y2="-49.04" gradientTransform="translate(196.4 -8.17) rotate(143.15)" xlink:href="#linear-gradient"/><linearGradient id="linear-gradient-6" x1="44.54" y1="-179.26" x2="3.11" y2="-62.59" gradientTransform="matrix(0.16, 0.99, -0.99, 0.16, 126.21, 76.71)" xlink:href="#linear-gradient"/><linearGradient id="linear-gradient-7" x1="82.33" y1="-203.01" x2="40.9" y2="-86.34" gradientTransform="matrix(0.69, 0.72, -0.72, 0.69, 110.24, 109.49)" xlink:href="#linear-gradient"/></defs><title>psicologyFirstImageRecurso 1</title><g class="cls-1"><g id="Capa_2" data-name="Capa 2"><g id="OBJECTS"><polygon class="cls-2" points="222.03 1.75 214.88 69.09 255.85 10.32 222.03 1.75"/><polygon class="cls-3" points="172.81 17.05 213.96 70.84 203.24 0 172.81 17.05"/><polygon class="cls-4" points="150.44 93.52 215.61 75.12 145.81 58.94 150.44 93.52"/><polygon class="cls-5" points="190 132.45 217.46 70.54 160.44 113.92 190 132.45"/><polygon class="cls-6" points="247.4 123.04 212.73 64.86 215.2 136.47 247.4 123.04"/><polygon class="cls-7" points="275.91 68.7 208.28 72.12 272.72 103.44 275.91 68.7"/><polygon class="cls-8" points="272.16 28.88 218.44 70.11 289.26 59.28 272.16 28.88"/><ellipse class="cls-9" cx="159.91" cy="278.89" rx="159.91" ry="19.04"/><ellipse class="cls-10" cx="159.91" cy="277.28" rx="143.79" ry="15.66"/><path class="cls-9" d="M198.11,249.19C199,254,185.88,258,168.8,258s-30.18-4.06-29.33-8.82c.81-4.49,13.91-7.95,29.31-7.95S197.29,244.7,198.11,249.19Z"/><path class="cls-10" d="M193.36,248.64c.63,4.09-10.39,7.56-24.65,7.56s-25.3-3.47-24.67-7.56c.59-3.9,11.61-6.92,24.65-6.92S192.76,244.74,193.36,248.64Z"/><path class="cls-11" d="M193.45,207.37l-.55,11.37-.61,12.89-.73,15.24c.08,3.88-5.56,6.33-13.09,7.36-13.67,1.86-32.24-1-33-7.36l-.73-15.15-.62-13-.54-11.32Z"/><path class="cls-12" d="M193.28,210.9l.17-3.53H143.61l.18,3.77C159.17,214.48,177.79,214.08,193.28,210.9Z"/><path class="cls-13" d="M143.4,205.33l-.57,2.69a1,1,0,0,0,.64,1.21c2.05.67,8.33,2.22,26.39,2.22,6,0,20.46-.85,23.9-2.48.4-.19.57-.48.51-.76l-.6-2.82Z"/><path class="cls-14" d="M193.67,205.4c.37,1.73-10.88,3.18-25.14,3.18s-25.52-1.45-25.15-3.18,11.62-3,25.15-3q1.83,0,3.6,0c10.67.19,19.31,1.22,21.17,2.54A.85.85,0,0,1,193.67,205.4Z"/><path class="cls-15" d="M35.58,274.17h0a3.26,3.26,0,0,1-3.27-3.27V240.79a3.26,3.26,0,0,1,3.27-3.27h0a3.27,3.27,0,0,1,3.28,3.27V270.9A3.27,3.27,0,0,1,35.58,274.17Z"/><path class="cls-15" d="M117.18,274.17h0a3.26,3.26,0,0,1-3.27-3.27V240.79a3.26,3.26,0,0,1,3.27-3.27h0a3.27,3.27,0,0,1,3.28,3.27V270.9A3.27,3.27,0,0,1,117.18,274.17Z"/><path class="cls-16" d="M77.46,274.17h0a3.27,3.27,0,0,1-3.28-3.27V240.79a3.27,3.27,0,0,1,3.28-3.27h0a3.27,3.27,0,0,1,3.28,3.27V270.9A3.27,3.27,0,0,1,77.46,274.17Z"/><path class="cls-15" d="M73.38,285.18h0a3.28,3.28,0,0,1-3.28-3.28V251.8a3.28,3.28,0,0,1,3.28-3.28h0a3.28,3.28,0,0,1,3.28,3.28v30.1A3.28,3.28,0,0,1,73.38,285.18Z"/><path class="cls-11" d="M73.38,254.48l-44.84-8.6a3.34,3.34,0,0,1-2.71-3.28V223l47.55,9.11Z"/><path class="cls-17" d="M25.83,223l47.55,9.11,49.86-11.37S15.42,209,25.83,223Z"/><polygon class="cls-17" points="123.24 243.11 73.38 254.47 73.38 232.15 123.24 220.78 123.24 243.11"/><path class="cls-15" d="M302.53,265.61h0a3.28,3.28,0,0,0,3.28-3.28v-30.1a3.28,3.28,0,0,0-3.28-3.28h0a3.28,3.28,0,0,0-3.28,3.28v30.1A3.28,3.28,0,0,0,302.53,265.61Z"/><path class="cls-15" d="M220.93,265.61h0a3.28,3.28,0,0,0,3.28-3.28v-30.1a3.28,3.28,0,0,0-3.28-3.28h0a3.28,3.28,0,0,0-3.28,3.28v30.1A3.28,3.28,0,0,0,220.93,265.61Z"/><path class="cls-16" d="M260.66,265.61h0a3.28,3.28,0,0,0,3.28-3.28v-30.1a3.28,3.28,0,0,0-3.28-3.28h0a3.28,3.28,0,0,0-3.28,3.28v30.1A3.28,3.28,0,0,0,260.66,265.61Z"/><path class="cls-15" d="M264.74,276.61h0a3.28,3.28,0,0,0,3.28-3.28v-30.1a3.28,3.28,0,0,0-3.28-3.28h0a3.28,3.28,0,0,0-3.28,3.28v30.1A3.28,3.28,0,0,0,264.74,276.61Z"/><path class="cls-11" d="M264.74,245.91l44.83-8.59a3.34,3.34,0,0,0,2.72-3.28V214.47l-47.55,9.11Z"/><path class="cls-17" d="M312.29,214.47l-47.55,9.11-49.86-11.36S322.7,200.45,312.29,214.47Z"/><polygon class="cls-17" points="214.88 234.54 264.74 245.91 264.74 223.58 214.88 212.22 214.88 234.54"/><path class="cls-16" d="M152.63,273.29h1.66s1.45.41,1.67,3.92c0,0-.41,2.49-7.86,2.31s-11.4-2.86-11.4-2.86L135.45,275v1.24s-4.57-1.43-5.19-2.05c0,0-.23-6.21,1-7.25S152.63,273.29,152.63,273.29Z"/><path class="cls-15" d="M141.42,264.84l5.2,6.2s5.94,1.24,7.67,2.25c2,1.17.32,3.89-7,3.13a28.74,28.74,0,0,1-7.26-2.26l-6.44-7Z"/><path class="cls-18" d="M52.73,212S96.51,200.53,114,196.74c2.79-1.64,6.51-1.92,9,.53a5,5,0,0,1,2.17,3.86l15.4,57.79a18.13,18.13,0,0,0,3.34,6.33c3.05,4-12.24,4.06-14.11,3a5.49,5.49,0,0,1-2.27-4.69,7.34,7.34,0,0,0-.87-3.55c-7.32-14.21-11.53-31.9-14.15-44.15-11.45,9.56-29.88,12.26-39.14,13.57C52.31,232.36,52.73,212,52.73,212Z"/><path class="cls-19" d="M102,150s-14.14-4.17-21.79-.5c-6.32,3-13.85,12.89-24,41.2-12.89,36.11-7.17,33.44-7.17,33.44l30.43-1.33c9.78-19.32,16.93-26.94,31.65-57.52C113.58,160.26,102,150,102,150Z"/><path class="cls-20" d="M113.36,156.52a118.53,118.53,0,0,1,9.44,14.66c.37-4.13,1-7.29,1.9-8l.54-5.35c.28-2,8-2.59,8.2.31l.18,4.27c3.13,4.08,2.22,33.77,2.19,34-.5,4.9-7.58,8.26-13.13,2.76-8.83-8.74-14-14.76-18.68-25.17C102.35,170.39,106.44,147.73,113.36,156.52Z"/><path class="cls-21" d="M110.13,184.06A57.11,57.11,0,0,1,104,174c-1.65-3.57.76-20.74,7.68-11.95C114.32,165.43,115.33,180.05,110.13,184.06Z"/><g class="cls-22"><path class="cls-23" d="M122,181.71s-.72,8,1.21,13c0,0-3-3.8-2.76-8.33l-2.2,5.88A16.27,16.27,0,0,1,122,181.71Z"/></g><path class="cls-24" d="M105.25,155s-1.06,4.76-2.33,13.37S85.07,208,85.07,208l8.56,4.73,9.12-26s11.51-13.81,12.82-19.58S110.42,147.06,105.25,155Z"/><path class="cls-25" d="M102.33,141.39l-7.68,6.43c-.91,3.16.14,6.33,1.44,8.73a4.62,4.62,0,0,0,6.76,1.57,9,9,0,0,0,1-.9l3.65-5.23Z"/><path class="cls-26" d="M102.72,142.11s3.57,9.72,2.47,13a12.88,12.88,0,0,1-1.33,2.07,9.06,9.06,0,0,1-.89.84c-1.15-2.3-3.24-4.41-3.36-6.94C99.41,148.27,101.67,145,102.72,142.11Z"/><path class="cls-25" d="M103.4,143.51s-2.71,5.17-1.79,6.92c2.14,4,6,10.17,10.38,10.09,1.89,0,9-5.1,10-12.52a.31.31,0,0,1,0-.13c.22-.67,1.48-1.77,1.73-2.31l.1-.22.23-.49a14.65,14.65,0,0,0,1-2.84c.12-.51.27-1.06.4-1.66.8-3.63,1.14-8.75-5.79-13.11-8.08-5.06-14.3-3.19-18.22,1.55a15.86,15.86,0,0,0-2.9,5.24C97.18,138.29,101.24,139.6,103.4,143.51Z"/><path class="cls-27" d="M117.13,142.16a3.11,3.11,0,0,1-6.08,1.34,1.4,1.4,0,0,1,.37-1.49,2,2,0,0,1,1.6,0,7.52,7.52,0,0,0,3.59,0C116.82,142.1,117.09,141.93,117.13,142.16Z"/><path class="cls-16" d="M115.74,145.37a2.43,2.43,0,0,1-2.51,1.41c-2.4-.43-2.09-3.15-2.09-3.15a3.6,3.6,0,0,0,2.19,2.07A5.28,5.28,0,0,0,115.74,145.37Z"/><path class="cls-16" d="M122.35,147.09a1.73,1.73,0,0,1-1.55,1.51c-2.07.13-1.83-2.74-1.83-2.74s.88,2,1.91,2A3,3,0,0,0,122.35,147.09Z"/><path class="cls-12" d="M117.8,141.62a11,11,0,0,1-3.81.3c-1.51-.29-3.06-.74-3.06-.74s-.14.29.29.67a6.39,6.39,0,0,0,2.48,1.34c1.17.33,3.45.53,3.8.19S117.8,141.62,117.8,141.62Z"/><path class="cls-28" d="M117.67,151.47c.17-.49,0-4.95.32-5.61a4.15,4.15,0,0,1,1.93-1.61l.32-.14.53-.19-.19.1h0a3.13,3.13,0,0,1,1.85.32,4.19,4.19,0,0,1,1.31.88l.09.12-.1.22c-.25.54-1.51,1.64-1.73,2.31a3.07,3.07,0,0,1-1,.22,1.85,1.85,0,0,1-1.31-.38,2.13,2.13,0,0,1-.57-1,2.7,2.7,0,0,1,0-1.38,4.27,4.27,0,0,0-.53.8c-.6,1.18.41,5.55.09,6s-3.49.07-3.49.07S117.5,152,117.67,151.47Z"/><path class="cls-25" d="M106.23,138.82c0-.19-.58-3.5-3.89-3.39s-2.16,8.93,1,8.69S106.37,140.63,106.23,138.82Z"/><g class="cls-29"><path class="cls-30" d="M102.15,136.46a1.16,1.16,0,0,1,.74-.07c1.77.36,2.32,2.5,2.12,4.07a1.63,1.63,0,0,1-.38,1,1.84,1.84,0,0,1-.92.25,1.22,1.22,0,0,0-1,1.48,10.69,10.69,0,0,1-.31-1.27,3,3,0,0,1,.17-1.32,1.21,1.21,0,0,1,.94-.78,1.4,1.4,0,0,1,1.08.29,2.89,2.89,0,0,0-.84-2.63,1.4,1.4,0,0,0-1-.44,1.15,1.15,0,0,0-.81.45,2.55,2.55,0,0,0-.42.84,2.2,2.2,0,0,1,0-1A1.23,1.23,0,0,1,102.15,136.46Z"/></g><path class="cls-12" d="M121.08,142.69s-1,1-.84,1.42,2.75,1.65,3.36,1.42c.29-.1.49-.67.46-.68A7.62,7.62,0,0,1,121.08,142.69Z"/><path class="cls-16" d="M108.26,280.53l1.71.13s1.46.54,1.4,4.19c0,0-.62,2.53-8.29,1.73s-11.52-3.87-11.52-3.87l-1.15-1.8-.09,1.28s-4.59-1.85-5.18-2.54c0,0,.27-6.42,1.63-7.39S108.26,280.53,108.26,280.53Z"/><path class="cls-15" d="M97.39,270.91l4.86,6.81s6,1.77,7.72,2.94c2,1.38,0,4-7.5,2.66a30,30,0,0,1-7.3-2.91l-6.07-7.76Z"/><path class="cls-31" d="M102,197.57a8.45,8.45,0,0,1,3.26-.95c4.27-.81,7.26,1.24,8.31,4.28a8.05,8.05,0,0,1,.37,4.92l-13.4,64.75c.41,1.09-.68,2.38.08,4.34,1.82,4.7-12.89.52-14.38-1-1.78-1.87-.47-4.75.82-7.24.34-10.22,4.53-39.64,6-47.55-7.36,5.11-17.51,9.39-23.47,9.83-24.38,1.76-20.51-20.54-20.51-20.54S85.82,203.07,102,197.57Z"/><path class="cls-24" d="M94.65,147.82a107.19,107.19,0,0,1,.63,11.78c0,5.67-7,20.81-15.65,34.67-9.39,15.07-6.11,36.82-7.3,37.87s-24-6.85-25.51-8.94.3-11,7.32-32.06S67.87,153.47,77.88,149,94.65,147.82,94.65,147.82Z"/><path class="cls-21" d="M70.16,161.88s2.63,30.32,10.89,34.74,29.35,11.83,27.73,7.53S70.16,161.88,70.16,161.88Z"/><path class="cls-20" d="M85.56,152.07c6.85,9.82,9.2,20.07,14,32,6.58,5.1,16.18,16.59,22.12,23.28,3,3.44-2.66,10.2-6.2,7.27-7.51-6.23-19.66-14.33-26.6-21.18-1.18-1.17-15.37-23.41-18.76-31.56C66.89,154,80.67,145.07,85.56,152.07Z"/><path class="cls-32" d="M114.73,212.39l-.43,8.54.61,1.95a3.13,3.13,0,0,1-2.25,3s-2.4-.33-3.09.16-.39,1.58-.39,1.58,3.51.91,4.2.95a8.82,8.82,0,0,0,2.43-.74,2.28,2.28,0,0,0,.77.81c1,.59,2.52-.14,2.52-.14a4,4,0,0,0,2.51.32,5.24,5.24,0,0,0,1.9-1.61c2.4-.63,3.8-2.41,3.3-5-.64-3.37-4.54-12.92-4.54-12.92C120.89,205.93,113.34,209.05,114.73,212.39Z"/><path class="cls-26" d="M117.18,156a9.18,9.18,0,0,0-6.16-1.74S115.34,153.12,117.18,156Z"/><path class="cls-12" d="M104.94,143.92c.47,0,1.34.66,1.76.86.08-1.59.3-2.92.56-4.7.18-1.24,1.3-5.68,4.79-4.65,1.9.56,3.68,2.86,6.09,4s6.3,2,8,1c1.08-.66,1.45-3,1.5-3.38.38-3.58-8.06-9.72-4.49-10.06,5.26-.5-2.64-5.57-11.08-5.65-8.22-.07-11.65,3.13-13.79,9.11-1.1,3.06-.93,8.42,0,12.73,0,.2.31,1.45.44,1.4a11.79,11.79,0,0,0,2.41-1.9c.51-.49.24-.35,0-1a7.23,7.23,0,0,1-.48-3.65c.16-1.27,1-2.73,2.29-2.56C106.74,136,105.47,141.39,104.94,143.92Z"/><path class="cls-12" d="M107.61,136.66c2.74-2.89,4.67-1.27,5.1-.81s.88,3.65,2.46,4.45a2,2,0,0,0,1.11.26,1,1,0,0,0,.84-.7,7,7,0,0,0,2.43,2.53,1.82,1.82,0,0,0,1.18.21,1,1,0,0,0,.8-.82,4.76,4.76,0,0,0,3.69,2.33,3,3,0,0,0,1.52-.23,3.69,3.69,0,0,0,2.27-2.7,12.69,12.69,0,0,0-.28-5.75,17.4,17.4,0,0,0-10.58-11.7c-2.39-.89-5.75,6.08-6.42,6.8C111.54,130.75,107.33,137,107.61,136.66Z"/><path class="cls-32" d="M122.66,139.69a6.08,6.08,0,0,1-1-1.35c-.24-1.2,1.34-1.24,1.34-1.24a30.23,30.23,0,0,1,6.13,3.3s-4.3-3.78-4.5-5,1.18-1.73,1.18-1.73l5.07,4.6,1.75,5.21a.74.74,0,0,1,.13.32c.14,1.39-.47,14.31-.47,14.31-.45,1.46-4.05,1.22-5.6,1.07,0,0-2.69-2.08-3.31-3.79-1.07-2.94,1.14-7.58,1-8.83s-2.82-5.13-2.82-5.13C121.37,140.6,122,139.6,122.66,139.69Z"/><path class="cls-12" d="M97,131.92c.32,4.11-.47,3.78-1.31,6.39-1,3.08,1.49,6.43,3,6.28-.27-4.5.36-10.25,3.08-13.84.57-.75,15-4.63,14.9-5.55-.37-2.38-5.4-6.41-13.46-3A9.91,9.91,0,0,0,97,131.92Z"/><path class="cls-30" d="M112.61,156.06s1.83,0,2.48.94C115.09,157,114.85,155.56,112.61,156.06Z"/><path class="cls-12" d="M272.51,125.66a2.91,2.91,0,0,1-.75-1,3.5,3.5,0,0,1,.13-1.86,7.41,7.41,0,0,0-2.47-7,3.32,3.32,0,0,1-1.12-1.21,2.75,2.75,0,0,1-.08-1.31,15.65,15.65,0,0,0-.74-7.23c-.64-1.59-2.88-5-4.92-4.42.38,1.22.95,2.35,1.35,3.57a12.09,12.09,0,0,0-3.78-1.89c-7.51-2.52-18.7-1.66-21,7.46a21.21,21.21,0,0,0-.26,7.58,3.62,3.62,0,0,1-.05,1.64,5.48,5.48,0,0,1-.79,1.25c-1.5,2.2-.74,5.3.87,7.42a4.06,4.06,0,0,1,1,1.74,4.86,4.86,0,0,1-.92,2.54c-1.56,3.17.39,7.16,3.36,9.07s6.64,2.27,10.16,2.58l3.85.34c2.34.2,4.78.4,7-.48a8.28,8.28,0,0,0,3.39-2.64,12.22,12.22,0,0,0,1,1.63.86.86,0,0,0,1.45.08c3.26-2.43,6.59-5.55,6.86-9.61C276.22,130.79,274.6,127.88,272.51,125.66Z"/><path class="cls-12" d="M236.43,253.72c-1.91,4.81-2.41,10.42-3.65,15.49-.44,1.78-2.08,3-2.56,4.77a5.43,5.43,0,0,0-.08,2.2c.25,1.94,3.7,3.6,8.33,1.83a5.63,5.63,0,0,0,3.43-3.78,19.08,19.08,0,0,0,.65-5,34.78,34.78,0,0,1,.74-8,40.23,40.23,0,0,1-.4,9.52c-.1.5,2.49.52,2.48,0,0-.8-.08-1.65-.06-2.08.22-3.73.55-14.21.52-15.31C246.23,247.7,238,249.85,236.43,253.72Z"/><path class="cls-12" d="M188.89,268.8c7.07-8.1,7.48-17.42,10.1-22.6,1.59-3.14,1.3-2.27,3.8-3.65a3.44,3.44,0,0,1,4.52,1.07c2.39,5.4,1.56,10.18,1.53,16.31,0,1.47.14,5.89.2,8.72,0,.56-3.16.54-3.14,0,.08-2.28,0-10.61-.29-13,.31,2.27-1.61,10.25-2.09,11.5-2.05,5.25-10.23,6.7-12.65,6.32C189.07,273.17,186.24,271.83,188.89,268.8Z"/><path class="cls-33" d="M276.45,197.88s-38.76-10.12-54.22-13.47c-2.47-1.46-5.76-1.71-8,.46a4.43,4.43,0,0,0-1.92,3.42l-13.64,51.16a15.56,15.56,0,0,1-2.95,5.61c-2.7,3.55,10.83,3.59,12.48,2.63a4.83,4.83,0,0,0,2-4.16,5.17,5.17,0,0,1,.77-3.14c8.88-12,10.22-28.24,12.53-39.09,10.14,8.47,32.56,15,41.29,14.45C283.6,214.66,276.45,197.88,276.45,197.88Z"/><path class="cls-34" d="M264.8,215.75c-5.2-.37-17.61-4-24.1-8.49-.09,0,4.17,10.5,5.32,39,1.14,2.2,2.3,4.75.72,6.4-1.32,1.39-14.34,5.09-12.73.93.68-1.74-.29-2.88.07-3.84l-11.86-57.32a7.24,7.24,0,0,1,.33-4.37c.93-2.68,3.58-4.5,7.35-3.78a7.35,7.35,0,0,1,2.89.84c2.07.7,4.52,1.4,7.2,2.09,2.11.53,4.35,1.05,6.67,1.56,15.09,3.32,33,5.91,33,5.91S286.39,217.32,264.8,215.75Z"/><path class="cls-35" d="M210.86,139.38c5.21,8.08,12.48,11.63,15.91,21.11l.29-.37a125.6,125.6,0,0,0,10.38-17.19c.91-1.75,2.2-6.44,4.47-6.6s6.16,3.29,7.84,4.56a3.5,3.5,0,0,1,1.49,1.81,3.67,3.67,0,0,1-.94,2.78l-5.94,8.61c-3.68,5.34-7.42,10.74-12.33,15-.76.65-4.73,4.23-6.95,3.36a12.29,12.29,0,0,1-4.55-3.81c-6.54-8.77-11.19-21.48-13.38-24.05Z"/><path class="cls-25" d="M259,126c.42,3.74,2.37,7.53,5.78,9.14-3.76,2-7.89,3.6-12.12,3.26s-9-.92-9.87-5.08c2.33.75,5.92-1.57,7.12-3.7s-.19-4.85.55-7.16c1.22-3.83,6.85-4.56,9.26-7.52.63,1.29-.2,3.21-.43,4.57A23.53,23.53,0,0,0,259,126Z"/><path class="cls-26" d="M249.44,130.34a5.1,5.1,0,0,0,.49-.72c1.2-2.11-.19-4.85.55-7.16,1.22-3.83,6.85-4.56,9.26-7.52.63,1.29-.2,3.21-.43,4.57-.1.66-.19,1.32-.26,2C256.61,125.88,253.75,130.31,249.44,130.34Z"/><path class="cls-13" d="M239.62,136.7c-1.43,2.24-8.68,17.74-9.86,19.55-.82,1.28,6.82,5.9,8,6.81s6.61-7.95,8.21-11.38c.75-3.61-.87-9.15-1.18-12.83-.16-1.92-.34-4.47-1.85-5.81A10.55,10.55,0,0,0,239.62,136.7Z"/><path class="cls-25" d="M245.43,128.54c5.59.65,12.06-4.64,12.94-5.85,2.54-3.49,1.62-4,2.78-8.18s.55-9-2.48-12.07c-5.4-5.45-11.34-2.14-14.74.9-4.21,3.77-3.11,8.35-3.53,13.33C239.93,122.3,243,128.26,245.43,128.54Z"/><path class="cls-35" d="M198,136.2a5.29,5.29,0,0,1-.65-4.24,4.85,4.85,0,0,1,1.35-1.86c.51-.45,1.19-1.06,1.85-.88,1.31,1.11-1.59,3.19-1.32,5.7.42-.56,1.31-2.9,1.87-3.33a1.54,1.54,0,0,1,1.91-.06,1.24,1.24,0,0,1-.13,1.59c-1.22,1.52-1.18,2.54-1.7,3.85a4,4,0,0,1,1-1.49,1.34,1.34,0,0,1,1.68,0c.53.52.17,1.27-.42,1.71-2,1.53-.47,3.25-2.35,2.45A7.62,7.62,0,0,1,198,136.2Z"/><path class="cls-35" d="M203.08,140.9c-1-.62-4.47-2.85-4.65-4-.12-.72,2.55.08,3.07-.44a4.81,4.81,0,0,1,1.9-1.06,4.63,4.63,0,0,1,4.22.34c1.24,1,1.51,2.71,1.53,4.28s.19,4.58-1,5.55C206.47,144,205.11,142.19,203.08,140.9Z"/><path class="cls-35" d="M212,138.63a9.22,9.22,0,0,0-2-4.69c-1.05-1.3-2.76-1.81-4.36-2.26a1,1,0,0,0-.85,0,.85.85,0,0,0-.14,1c.69,1.59,2.14,1.9,2.41,3.61a28.79,28.79,0,0,0,.69,3.17c.26,1,1.29,3.08,2.55,2.71C211.35,141.9,212,140.15,212,138.63Z"/><path class="cls-13" d="M249.48,179.29q-1.29,4.8-2.82,9.5c-2.32-.51-4.56-1-6.67-1.56,2.74-9.09,4.88-16.71,4.89-18.56,0-5.58-2.19-13.89-3.54-19.32s-1.71-11.63,1.59-16.15a0,0,0,0,0,0,0,1.16,1.16,0,0,0,0-.18,7.07,7.07,0,0,0,3-.36C241.16,148.35,253.64,162.63,249.48,179.29Z"/><path class="cls-36" d="M261.76,132.86c-1.12.53-2.66,3.15-3.39,4.08-.15.19-.32.38-.48.56-4.21.85-8.23.85-11.32-.82a25.13,25.13,0,0,1,.29-4.34,8.86,8.86,0,0,1-.85.34c-4.84,15.68,7.63,29.95,3.47,46.61-.82,3.07-2.31,6.5-3.28,9.5,4.75,2.35,10.4,4.86,16.07,3.91,1-.22,3.64.24,4.56,0a122.53,122.53,0,0,0-9.48-21.24C250.83,160,254.19,144.79,261.76,132.86Z"/><path class="cls-13" d="M281.06,192.91c-1-4.06-3.57-7.38-5.85-11a78.39,78.39,0,0,0-5.25-8.63c-6.81-10.09-5.46-22.13-4.95-25.09.62-3.56,3.22-9.94,2.61-13.45.17-1.45-5.79-1.87-5.79-1.87l-.07,0c-7.69,8.43-10.93,27.14-4.41,38.56,10.93,19.13,14.92,41.47,9,61.59a65.4,65.4,0,0,0,14.22-1.7C281.67,223.69,285.28,209.91,281.06,192.91Z"/><path class="cls-35" d="M292,217.23c-.18-1.77-2.84-8.24-2.84-8.24s-3.22-28-6.54-36.44c-3.05-7.74-12.3-33.68-12.3-33.68s-5.4-5.53-8.58-4.05-1.91,4.18-1.21,6.73c1.34,4.89,2.76,6.88,4.53,11.63.84,2.24,9.45,22,9.45,22s-.75,12.64,10.82,34.77c-1.53,2.78-2.16,3.56-2.38,6.72-.06.88-.3,4.24.87,4.51a.57.57,0,0,0,.53-.2c1-1.17.17-2.29.95-4.12-.09.87.84,3.57,1.51,6,.84,3.06-.44,5.66.39,6s1.72-.26,2.48-1.47c.17.12.44.15.86-.24.78-.73,1.49-4.69,1.48-8h0A13.94,13.94,0,0,0,292,217.23Z"/><path class="cls-13" d="M270.11,166.83c-4.56-7.38-10.94-22-11.49-25.06-1-5.44,2.57-7.43,4.1-7.89,2.26-.69,6.27.38,7.39,2.45,3.8,7,7.92,19.43,8.85,26.41C277.14,164.73,273.36,167.16,270.11,166.83Z"/><path class="cls-25" d="M259,114.31a3.2,3.2,0,0,1,4-1.61c2.57,1-.72,7.61-3.16,6.55S258.42,115.69,259,114.31Z"/><g class="cls-29"><path class="cls-30" d="M262.87,113.56a1,1,0,0,0-.56-.26c-1.49-.19-2.5,1.34-2.77,2.62a1.39,1.39,0,0,0,0,.9,1.59,1.59,0,0,0,.65.45,1,1,0,0,1,.54.68,1,1,0,0,1-.13.75,7.87,7.87,0,0,0,.59-.91,2.65,2.65,0,0,0,.23-1.08,1,1,0,0,0-.53-.87,1.16,1.16,0,0,0-.93-.07,2.41,2.41,0,0,1,1.38-1.84,1.2,1.2,0,0,1,.91-.07,1,1,0,0,1,.51.57,2.07,2.07,0,0,1,.1.78,1.63,1.63,0,0,0,.3-.79A1,1,0,0,0,262.87,113.56Z"/></g><path class="cls-27" d="M246.81,111.61a2.71,2.71,0,0,0,4.39,3.18,1.2,1.2,0,0,0,.22-1.31c-.25-.42-.8-.49-1.28-.57a6.63,6.63,0,0,1-2.85-1.24C247.08,111.67,246.93,111.44,246.81,111.61Z"/><path class="cls-12" d="M246.1,112.36a9.61,9.61,0,0,1,3.32.07c1.28.38,2.59.9,2.59.9s.15-.23-.2-.6a5.48,5.48,0,0,0-2-1.37c-1-.39-2.94-.76-3.26-.49S246.1,112.36,246.1,112.36Z"/><path class="cls-28" d="M243.16,118.86c0-.46,1.74-3.94,1.69-4.6a3.57,3.57,0,0,0-1-1.94,2.29,2.29,0,0,0-.21-.23c-.2-.2-.35-.33-.35-.33l.11.14h0a2.74,2.74,0,0,0-1.59-.38,3.67,3.67,0,0,0-1.35.25l-.11.06V112a23.15,23.15,0,0,1,.59,2.45,2.9,2.9,0,0,0,.75.53,1.65,1.65,0,0,0,1.17.15,1.77,1.77,0,0,0,.82-.64,2.35,2.35,0,0,0,.51-1.08,4.12,4.12,0,0,1,.15.82c.06,1.15-2.25,4.29-2.16,4.77s2.76,1.27,2.76,1.27S243.12,119.31,243.16,118.86Z"/><path class="cls-12" d="M243.63,112.1s.34-1.16,0-1.44a5,5,0,0,0-3.15.38.9.9,0,0,0-.05.71A6.76,6.76,0,0,1,243.63,112.1Z"/><path class="cls-26" d="M245.64,121.52l-.85.26-.58-.37-1.8.51c.08.12.66.47.74.57,2.18,1,3.32.28,4.91-.49A7.73,7.73,0,0,1,245.64,121.52Z"/><path class="cls-26" d="M242.73,122.69a3,3,0,0,0,5.17.08c.17-.25.27-.43.22-.41A4.66,4.66,0,0,1,242.73,122.69Z"/><path class="cls-16" d="M249,114.77c.06.66-.26,1.23-.71,1.27s-.87-.47-.93-1.13.26-1.23.71-1.27S248.91,114.1,249,114.77Z"/><path class="cls-16" d="M243.23,114.22c.06.66-.26,1.23-.71,1.27s-.87-.46-.93-1.12.27-1.24.72-1.28S243.18,113.56,243.23,114.22Z"/><path class="cls-12" d="M240.74,102.35c-3.35,2.74-4.27,3.68-1.61,5.63,1.75,1.29,5.12,1.28,7.07.69s3.42-2,3.24-2.32c-.44-.87-.11,2,1.58,3.66.69.69,3.69,2.09,5.75.53,0,0-1.32,6.13,1.52,8.16a25.05,25.05,0,0,1,.89-4.65,2.61,2.61,0,0,1,2.52-1.59c2.57,0,2.26,3,2.42,1.6.21-1.84.68-7.34-.18-10.33a8.36,8.36,0,0,0-3.6-4.2C257.86,97.85,249.44,95.2,240.74,102.35Z"/><path class="cls-13" d="M260.93,119.19a.67.67,0,0,1-1.33,0,.67.67,0,1,1,1.33,0Z"/><path class="cls-10" d="M102.5,66a12.75,12.75,0,0,0-17.64-9.3A15.31,15.31,0,0,0,71,47.94a15.92,15.92,0,0,0-3.11.31,18.19,18.19,0,0,0-34.64,4.94h-.19A11.69,11.69,0,0,0,21.38,64.87,11.46,11.46,0,0,0,21.44,66Z"/><path class="cls-37" d="M213.94,69.09a12.78,12.78,0,0,0-17.64-9.3A15.32,15.32,0,0,0,182.45,51a15.74,15.74,0,0,0-3.1.31,18.2,18.2,0,0,0-34.65,4.93h-.18a11.69,11.69,0,0,0-11.7,11.69,11.12,11.12,0,0,0,.06,1.16Z"/><path class="cls-37" d="M294.41,83.38a12.78,12.78,0,0,0-17.64-9.3,15.32,15.32,0,0,0-13.86-8.8,15.09,15.09,0,0,0-3.1.32,18.19,18.19,0,0,0-34.64,4.93H225a11.7,11.7,0,0,0-11.69,11.69,11.31,11.31,0,0,0,.06,1.17Z"/><path class="cls-10" d="M141.64,103.68a9.15,9.15,0,0,0-9-7.41A9,9,0,0,0,129,97a11,11,0,0,0-9.92-6.3,10.86,10.86,0,0,0-2.22.23,13,13,0,0,0-24.79,3.53H92a8.37,8.37,0,0,0-8.37,8.37,7.55,7.55,0,0,0,0,.83Z"/><polygon class="cls-12" points="35.48 74.51 43.87 74.51 38.66 82.9 45.38 83.16 35.48 97.63 38.66 87.52 32.35 87.52 35.48 74.51"/><polygon class="cls-12" points="65.08 107.14 73.46 107.14 68.26 115.53 74.97 115.8 65.08 130.27 68.26 120.15 61.94 120.15 65.08 107.14"/><polygon class="cls-12" points="32.2 128.21 40.59 128.21 35.38 136.6 42.1 136.87 32.2 151.34 35.38 141.22 29.07 141.22 32.2 128.21"/><circle class="cls-38" cx="214.88" cy="69.09" r="19.6"/><path class="cls-16" d="M207.41,64.85c0,1.57-.64,2.85-1.44,2.85s-1.44-1.28-1.44-2.85S205.18,62,206,62,207.41,63.27,207.41,64.85Z"/><path class="cls-16" d="M221.74,64.85c0,1.57-.64,2.85-1.44,2.85s-1.44-1.28-1.44-2.85S219.51,62,220.3,62,221.74,63.27,221.74,64.85Z"/><path class="cls-39" d="M210.06,74.46a3.55,3.55,0,0,0,7.09,0"/></g></g></g></svg>